<svg xmlns="http://www.w3.org/2000/svg" xmlns:xlink="http://www.w3.org/1999/xlink" version="1.1" width="1080" height="400" viewBox="0 0 1080 400" xml:space="preserve">
<desc>Created with Fabric.js 3.5.0</desc>
<defs>
</defs>
<rect x="0" y="0" width="100%" height="100%" fill="rgba(255,255,255,0)"/>
<g transform="matrix(1 0 0 1 540 200)" style="" id="508188">
		
<path xml:space="preserve" font-family="Lato" font-size="250" font-style="normal" font-weight="bold" style="stroke: none; stroke-width: 1; stroke-dasharray: none; stroke-linecap: butt; stroke-dashoffset: 0; stroke-linejoin: miter; stroke-miterlimit: 4; is-custom-font: none; font-file-url: none; fill: rgb(255,255,255); fill-rule: nonzero; opacity: 1; white-space: pre;" d="M-387.63-102.22L-387.63 50.78L-315.25 50.78L-315.25 78.53L-421.25 78.53L-421.25-102.22L-387.63-102.22ZM-296.38-49.72L-265.50-49.72L-265.50 31.78Q-265.50 43.53-260.06 49.97Q-254.63 56.41-243.75 56.41L-243.75 56.41Q-235.75 56.41-228.75 52.85Q-221.75 49.28-215.50 43.03L-215.50 43.03L-215.50-49.72L-184.63-49.72L-184.63 78.53L-203.50 78.53Q-209.50 78.53-211.38 72.91L-211.38 72.91L-213.50 62.66Q-217.50 66.66-221.75 69.97Q-226 73.28-230.81 75.60Q-235.63 77.91-241.19 79.22Q-246.75 80.53-253.13 80.53L-253.13 80.53Q-263.63 80.53-271.69 76.97Q-279.75 73.41-285.25 66.91Q-290.75 60.41-293.56 51.47Q-296.38 42.53-296.38 31.78L-296.38 31.78L-296.38-49.72ZM-53.38-33.84L-61.50-22.59Q-62.88-20.84-64.19-19.84Q-65.50-18.84-68-18.84L-68-18.84Q-70.38-18.84-72.63-20.28Q-74.88-21.72-78-23.53Q-81.13-25.34-85.44-26.78Q-89.75-28.22-96.13-28.22L-96.13-28.22Q-104.25-28.22-110.38-25.28Q-116.50-22.34-120.56-16.84Q-124.63-11.34-126.63-3.53Q-128.63 4.28-128.63 14.16L-128.63 14.16Q-128.63 24.41-126.44 32.41Q-124.25 40.41-120.13 45.85Q-116 51.28-110.13 54.10Q-104.25 56.91-96.88 56.91L-96.88 56.91Q-89.50 56.91-84.94 55.10Q-80.38 53.28-77.25 51.10Q-74.13 48.91-71.81 47.10Q-69.50 45.28-66.63 45.28L-66.63 45.28Q-62.88 45.28-61 48.16L-61 48.16L-52.13 59.41Q-57.25 65.41-63.25 69.47Q-69.25 73.53-75.69 75.97Q-82.13 78.41-89 79.41Q-95.88 80.41-102.63 80.41L-102.63 80.41Q-114.50 80.41-125 75.97Q-135.50 71.53-143.31 63.03Q-151.13 54.53-155.69 42.22Q-160.25 29.91-160.25 14.16L-160.25 14.16Q-160.25 0.03-156.19-12.03Q-152.13-24.09-144.25-32.90Q-136.38-41.72-124.75-46.72Q-113.13-51.72-98-51.72L-98-51.72Q-83.63-51.72-72.81-47.09Q-62-42.47-53.38-33.84L-53.38-33.84ZM20.63-51.72L20.63-51.72Q32.75-51.72 42.94-47.84Q53.13-43.97 60.50-36.53Q67.88-29.09 72-18.28Q76.13-7.47 76.13 6.41L76.13 6.41Q76.13 9.91 75.81 12.22Q75.50 14.53 74.69 15.85Q73.88 17.16 72.50 17.72Q71.13 18.28 69 18.28L69 18.28L-10.25 18.28Q-8.88 38.03 0.38 47.28Q9.63 56.53 24.88 56.53L24.88 56.53Q32.38 56.53 37.81 54.78Q43.25 53.03 47.31 50.91Q51.38 48.78 54.44 47.03Q57.50 45.28 60.38 45.28L60.38 45.28Q62.25 45.28 63.63 46.03Q65 46.78 66 48.16L66 48.16L75 59.41Q69.88 65.41 63.50 69.47Q57.13 73.53 50.19 75.97Q43.25 78.41 36.06 79.41Q28.88 80.41 22.13 80.41L22.13 80.41Q8.75 80.41-2.75 75.97Q-14.25 71.53-22.75 62.85Q-31.25 54.16-36.13 41.35Q-41 28.53-41 11.66L-41 11.66Q-41-1.47-36.75-13.03Q-32.50-24.59-24.56-33.15Q-16.63-41.72-5.19-46.72Q6.25-51.72 20.63-51.72ZM21.25-29.59L21.25-29.59Q7.75-29.59 0.13-21.97Q-7.50-14.34-9.63-0.34L-9.63-0.34L48.38-0.34Q48.38-6.34 46.75-11.65Q45.13-16.97 41.75-20.97Q38.38-24.97 33.25-27.28Q28.13-29.59 21.25-29.59ZM132.13 78.53L101.25 78.53L101.25-49.72L119.38-49.72Q124.13-49.72 126-47.97Q127.88-46.22 128.50-41.97L128.50-41.97L130.38-26.47Q137.25-38.34 146.50-45.22Q155.75-52.09 167.25-52.09L167.25-52.09Q176.75-52.09 183-47.72L183-47.72L179-24.59Q178.63-22.34 177.38-21.40Q176.13-20.47 174-20.47L174-20.47Q172.13-20.47 168.88-21.34Q165.63-22.22 160.25-22.22L160.25-22.22Q150.63-22.22 143.75-16.90Q136.88-11.59 132.13-1.34L132.13-1.34L132.13 78.53ZM234.25 78.53L203.38 78.53L203.38-49.72L222.25-49.72Q228.25-49.72 230.13-44.09L230.13-44.09L232.25-33.97Q236.13-37.97 240.44-41.22Q244.75-44.47 249.56-46.84Q254.38-49.22 259.88-50.47Q265.38-51.72 271.88-51.72L271.88-51.72Q282.38-51.72 290.50-48.15Q298.63-44.59 304.06-38.15Q309.50-31.72 312.31-22.78Q315.13-13.84 315.13-3.09L315.13-3.09L315.13 78.53L284.25 78.53L284.25-3.09Q284.25-14.84 278.81-21.28Q273.38-27.72 262.50-27.72L262.50-27.72Q254.50-27.72 247.50-24.09Q240.50-20.47 234.25-14.22L234.25-14.22L234.25 78.53ZM456.38-49.72L386.50 113.78Q385.13 117.03 382.94 118.72Q380.75 120.41 376.25 120.41L376.25 120.41L353.25 120.41L377.25 69.03L325.38-49.72L352.38-49.72Q356.13-49.72 358.13-47.97Q360.13-46.22 361.13-43.97L361.13-43.97L388.50 22.53Q389.88 25.78 390.88 29.28Q391.88 32.78 392.63 36.28L392.63 36.28Q393.63 32.66 394.81 29.28Q396 25.91 397.38 22.41L397.38 22.41L423.13-43.97Q424.13-46.47 426.44-48.09Q428.75-49.72 431.63-49.72L431.63-49.72L456.38-49.72Z"/></g>
</svg>