<svg id="SvgjsSvg1983" width="360" height="360" xmlns="http://www.w3.org/2000/svg" version="1.1" xmlns:xlink="http://www.w3.org/1999/xlink" xmlns:svgjs="http://svgjs.com/svgjs"><defs id="SvgjsDefs1984"></defs><g id="SvgjsG1985"><svg xmlns="http://www.w3.org/2000/svg" fill="none" viewBox="0 0 3001 3000" width="360" height="360"><g clip-path="url(#a)"><path fill="#f1f1f1" fill-rule="evenodd" d="M2516.33 1653.13C2783.69 1653.13 3000.44 1436.38 3000.44 1169.01C3000.44 901.641 2783.69 684.896 2516.33 684.896C2248.96 684.896 2032.21 901.641 2032.21 1169.01C2032.21 1436.38 2248.96 1653.13 2516.33 1653.13ZM2516.33 1374.39C2629.75 1374.39 2721.71 1282.44 2721.71 1169.01C2721.71 1055.58 2629.75 963.629 2516.33 963.629C2402.9 963.629 2310.94 1055.58 2310.94 1169.01C2310.94 1282.44 2402.9 1374.39 2516.33 1374.39Z" clip-rule="evenodd" class="colorF1F1F1 svgShape"></path><path fill="#f1f1f1" d="M799.919 750.912H1034.64V1058.98H799.919V750.912zM2332.95 2027.21H2824.4V2665.36H2332.95V2027.21zM191.108 1264.37C191.108 1223.86 223.948 1191.02 264.459 1191.02H1636.12C1676.63 1191.02 1709.47 1223.86 1709.47 1264.37V2107.9C1709.47 2148.41 1676.63 2181.25 1636.12 2181.25H264.459C223.948 2181.25 191.108 2148.41 191.108 2107.9V1264.37z" class="colorF1F1F1 svgShape"></path><path fill="#3e3d3d" d="M1441.74 2863.41L1221.69 376.823H2325.61L2606.13 1469.2C2626.81 1549.71 2634.19 1633.06 2627.98 1715.94L2542 2863.41H2167.91L2134.9 1733.81L1955.19 1385.39L1812.16 2863.41H1441.74Z" class="color3E3D3D svgShape"></path><path fill="#3e3d3d" fill-rule="evenodd" d="M1217.68 373.155H2328.46L2609.69 1468.29C2630.46 1549.19 2637.87 1632.93 2631.63 1716.22L2545.4 2867.08H2164.35L2131.26 1734.75L1957.64 1398.15L1815.49 2867.08H1438.38L1217.68 373.155ZM1225.69 380.49L1445.1 2859.74H1808.83L1952.74 1372.64L2138.54 1732.87L2171.47 2859.74H2538.6L2624.32 1715.67C2630.5 1633.18 2623.16 1550.24 2602.58 1470.12L2322.77 380.49H1225.69Z" clip-rule="evenodd" class="color3E3D3D svgShape"></path><path fill="#3e3d3d" fill-rule="evenodd" d="M29.7363 2863.41C29.7363 2859.36 33.0204 2856.08 37.0714 2856.08H2952.76C2956.81 2856.08 2960.1 2859.36 2960.1 2863.41C2960.1 2867.46 2956.81 2870.75 2952.76 2870.75H37.0714C33.0204 2870.75 29.7363 2867.46 29.7363 2863.41Z" clip-rule="evenodd" class="color3E3D3D svgShape"></path><path fill="#afc1d6" d="M708.23 1447.74C708.23 1407.23 741.07 1374.39 781.581 1374.39H2153.24C2193.75 1374.39 2226.59 1407.23 2226.59 1447.74V2408.64C2226.59 2449.15 2193.75 2481.99 2153.24 2481.99H781.581C741.07 2481.99 708.23 2449.15 708.23 2408.64V1447.74Z" class="colorF15846 svgShape"></path><path fill="#f1f1f1" fill-rule="evenodd" d="M183.773 743.577H660.552V1058.98H183.773V743.577ZM198.443 758.247V1044.31H645.882V758.247H198.443Z" clip-rule="evenodd" class="colorF1F1F1 svgShape"></path><path fill="#ffffff" d="M807.254 750.912H1034.64C1023.96 881.909 1043.31 946.932 1111.66 1051.65H884.273C809.438 943.75 796.431 877.082 807.254 750.912Z" class="colorfff svgShape"></path><path fill="#f1f1f1" fill-rule="evenodd" d="M800.522 743.577H1042.6L1041.95 751.508C1036.65 816.565 1038.85 864.655 1050.61 909.267C1062.37 953.895 1083.82 995.572 1117.8 1047.64L1125.21 1058.98H880.434L878.246 1055.83C840.541 1001.47 818.062 956.99 806.518 909.878C794.986 862.813 794.509 813.678 799.947 750.285L800.522 743.577ZM814.006 758.247C809.235 817.711 810.187 863.21 820.767 906.387C831.513 950.244 852.329 992.245 888.122 1044.31H1098.21C1067.95 996.707 1047.86 956.411 1036.42 913.004C1024.58 868.072 1022.15 820.293 1026.72 758.247H814.006Z" clip-rule="evenodd" class="colorF1F1F1 svgShape"></path><path fill="#afc1d6" d="M312.137 2758.23C340.258 2794.78 393.085 2791.59 418.954 2784.8 420.789 2784.32 421.862 2782.41 421.458 2780.56 394.526 2656.89 295.745 2642.81 232.788 2653.64 228.649 2654.35 228.432 2664.31 232.006 2666.52 257.654 2682.36 283.801 2721.39 312.137 2758.23zM530.519 2745.5C511.236 2778.94 459.669 2781.34 430.093 2777.79 425.862 2777.28 423.213 2773.03 424.371 2768.93 459.041 2646.19 546.41 2631.75 600.29 2642.28 607.005 2643.59 607.44 2652.79 601.635 2656.41 572.547 2674.56 552.633 2707.15 530.519 2745.5z" class="colorF15846 svgShape"></path><path fill="#3e3d3d" fill-rule="evenodd" d="M429.498 2863.41V2474.65H414.827V2863.41H429.498Z" clip-rule="evenodd" class="color3E3D3D svgShape"></path><path fill="#afc1d6" d="M352.48 2467.32C341.268 2523.38 389.417 2586.14 418.256 2614.01C420.563 2616.24 424.058 2616.61 426.724 2614.83C469.757 2586 518.509 2501.73 473.509 2437.98C454.809 2411.49 440.954 2378.32 432.257 2349.95C429.818 2341.99 408.378 2340.01 404.363 2347.3C386.961 2378.9 362.31 2418.17 352.48 2467.32Z" class="colorF15846 svgShape"></path><path fill="#afc1d6" fill-rule="evenodd" d="M1424.21 926.953C1319.51 926.953 1227.46 996.303 1198.59 1096.95L1118.99 1374.39H1243.69L1296.3 1127.68C1313.97 1044.84 1387.13 985.634 1471.83 985.634C1556.92 985.634 1630.31 1045.38 1647.57 1128.7L1698.46 1374.39H1823.16L1746.32 1098.66C1718.03 997.165 1625.58 926.953 1520.21 926.953H1424.21Z" clip-rule="evenodd" class="colorF15846 svgShape"></path><path fill="#efcb96" d="M1368.39 824.262C1383.06 750.911 1350.05 495.406 1331.71 376.823H1610.44C1606.78 423.278 1595.77 549.197 1581.1 681.228C1566.43 813.259 1594.55 909.838 1610.44 941.623C1636.12 1003.97 1645.65 1128.67 1478.41 1128.67C1269.36 1128.67 1350.05 915.95 1368.39 824.262Z" class="colorEFCB96 svgShape"></path><path fill="#efcb96" d="M1628.78 875.608C1599.44 831.597 1577.44 770.472 1577.44 747.244L1551.76 824.262C1567.66 863.383 1601.64 942.357 1610.44 945.291C1619.25 948.225 1641.01 961.184 1650.79 967.296C1658.12 948.959 1658.12 919.618 1628.78 875.608Z" class="colorEFCB96 svgShape"></path><path fill="#3e3d3d" fill-rule="evenodd" d="M1273.03 2672.7H876.937V2658.03H1273.03V2672.7zM891.607 2261.94V1656.79H906.277V2261.94H891.607zM2043.21 2261.94V1656.79H2057.88V2261.94H2043.21z" clip-rule="evenodd" class="color3E3D3D svgShape"></path><path fill="#f1f1f1" fill-rule="evenodd" d="M246.121 813.26H260.791V989.301H598.204V1003.97H246.121V813.26Z" clip-rule="evenodd" class="colorF1F1F1 svgShape"></path><path fill="#afc1d6" fill-rule="evenodd" d="M275.754 881.316C261.337 868.586 253.2 852.295 250.052 840.883L264.194 836.982C266.698 846.063 273.483 859.74 285.464 870.32C297.218 880.698 314.106 888.248 337.65 885.44C370.951 881.469 393.828 886.327 409.963 895.466C426.112 904.614 434.569 917.53 439.962 927.712C444.678 936.616 451.537 946.004 462.38 952.781C473.146 959.51 488.483 964.069 510.892 962.256C552.453 958.893 573.79 983.43 579.359 997.626L565.702 1002.98C562.227 994.126 546.484 974.094 512.076 976.878C487.004 978.907 468.427 973.861 454.604 965.221C440.859 956.629 432.456 944.885 426.998 934.578C422.216 925.55 415.412 915.413 402.733 908.231C390.04 901.041 370.524 896.294 339.387 900.007C311.381 903.347 290.397 894.246 275.754 881.316Z" clip-rule="evenodd" class="colorF15846 svgShape"></path><path fill="#f1f1f1" fill-rule="evenodd" d="M975.96 849.935H858.599V835.265H975.96V849.935zM994.298 926.953H876.937V912.283H994.298V926.953zM1027.31 992.969H909.945V978.299H1027.31V992.969zM2752.15 746.116L2602.76 982.647C2673 1015.28 2721.71 1086.46 2721.71 1169.01 2721.71 1238.85 2686.84 1300.55 2633.57 1337.66L2844.21 1525.18C2940.26 1436.71 3000.44 1309.89 3000.44 1169.01 3000.44 987.257 2900.28 828.898 2752.15 746.116z" clip-rule="evenodd" class="colorF1F1F1 svgShape"></path><path fill="#3e3d3d" fill-rule="evenodd" d="M2457.64 384.158L1078.65 384.158L1078.65 369.488L2457.64 369.488L2457.64 384.158Z" clip-rule="evenodd" class="color3E3D3D svgShape"></path></g><defs><clipPath id="a"><rect width="3000" height="3000" fill="#ffffff" transform="translate(.44)" class="colorfff svgShape"></rect></clipPath></defs></svg></g></svg>