<svg xmlns="http://www.w3.org/2000/svg" viewBox="57.718 53 1057.792 871.978"><path fill="#f5f8fc" d="m57.92,288.26c-5.42-92.97,49.47-177.03,122.82-204.36,47.12-17.56,107.71-12,150.81,13.62,65.17,38.74,41.45,94.28,102.05,129.03,60.75,34.84,107.04-8.11,177.91,25.65,75.54,35.98,94.31,118.77,96.63,129.83,17.84,85.01-30.17,175.19-113.79,220.39-118.22,63.9-274.09,19.77-319.69-48.09-25.3-37.65-11.02-74.22-51.48-104.19-37.84-28.02-73.39-13.1-106.56-38.47-21.71-16.6-52.38-48.09-58.7-123.42Z" transform="translate(110.216 -17.114) scale(1.41224)"/><g transform="translate(431.18 53.49)"><rect width="365.43" height="599.7" x="5.32" y="-.49" fill="#b8c2d8" rx="44.87" ry="44.87"/><path fill="#f9f9ff" d="m318.24,8.64h-37.57c-4.01,0-7.81,1.79-10.36,4.87l-4.94,5.97c-4.2,5.07-10.55,8.01-17.27,8.01h-116.26c-5.87,0-11.49-2.25-15.64-6.25l-9.13-8.82c-2.51-2.42-5.86-3.78-9.35-3.78h-39.89c-24.44,0-44.25,19.81-44.25,44.25v493.83c0,24.44,19.81,44.25,44.25,44.25h260.41c24.44,0,44.25-19.81,44.27-40.28V56.86c-.02-28.4-19.84-48.21-44.27-48.21Z"/><rect width="327.61" height="365.13" x="24.53" y="105.97" fill="#fff"/><path fill="#b8c2d8" stroke="#633434" stroke-miterlimit="10" stroke-width=".64" d="m345.63,499.83l-5.59-6.81c-.3-.32-.8-.32-1.1,0l-5.59,5.9c-.49.51-1.33.16-1.33-.57v-17.1c0-.89.75-1.62,1.67-1.62h11.61c.92,0,1.67.72,1.67,1.62v18.01c0,.72-.84,1.08-1.33.57Z"/><path fill="#3B82F6" d="m45.84,499.37c-.82,0-1.6-.31-2.18-.89l-6.96-6.91c-2.75-2.72-2.77-7.15-.05-9.89,2.44-2.46,6.32-2.77,9.11-.71,3.1-2.31,7.48-1.67,9.79,1.42,2.07,2.78,1.8,6.66-.65,9.12l-6.9,6.96c-.57.58-1.36.9-2.17.91Z"/><rect width="233.66" height="9.76" x="34.6" y="518.99" fill="#b8c2d8"/><rect width="102.8" height="9.76" x="34.6" y="536.99" fill="#b8c2d8"/><rect width="79" height="9.76" x="62.05" y="63.26" fill="#b8c2d8"/><rect width="79" height="9.76" x="272.83" y="63.26" fill="#b8c2d8"/><rect width="54.6" height="9.76" x="62.05" y="77.91" fill="#b8c2d8"/><circle cx="39.18" cy="75.46" r="12.2" fill="#b8c2d8"/><polygon fill="#fff" stroke="#633434" stroke-linecap="round" stroke-linejoin="round" stroke-width=".76" points="96.98 488.64 102.78 491.08 104.91 498.09 108.27 494.43 114.15 499.09 118.03 480.1 96.98 488.64"/><polyline fill="#fff" stroke="#633434" stroke-linecap="round" stroke-linejoin="round" stroke-width=".76" points="102.78 491.08 113.45 484.67 106.44 492.91 108.27 494.43"/><path fill="#fff" stroke="#633434" stroke-linecap="round" stroke-linejoin="round" stroke-width=".76" d="m85.39,489.4c0-4.97-4.03-9-9-9s-9,4.03-9,9c0,4.68,3.58,8.53,8.15,8.96l9.85.04-2.64-2.64c1.63-1.63,2.64-3.88,2.64-6.36Z"/><circle cx="248.89" cy="16.14" r="5.34"/><rect width="104.32" height="5.8" x="128.86" y="13.24"/></g><g transform="translate(454.775 166.65) scale(.63884)"><path fill="#141414" d="m201.05,131.14s-17.12-44.22-9.51-58.01c7.61-13.79,22.35,2.85,22.35,2.85,0,0,1.9-11.89,14.27-14.27,12.36-2.38,32.33,0,47.55-11.41,15.22-11.41,19.97-16.64,24.73-9.99,4.76,6.66,3.33,20.45-6.18,29.96s-93.2,60.87-93.2,60.87Z"/><path d="m497.29,338.94s-56.59-15.22-89.87,33.76c0,0-12.03,29.61,52.78-1.9,51.83-25.2,37.09-31.86,37.09-31.86Z"/><path fill="#7c4b33" d="m513.46,373.7v99.78c-17.85,6.6-38.55.36-49.53-16.19l-25.5-38.4-.29-.42-3.13-4.72-.12-.18-18.77-28.26-8.53-12.84-.1-.15-.28-.42-10.35-15.58-23.76-35.78-20.17-30.37c-12.84-19.33-7.58-45.42,11.75-58.25l2.89-1.92c2.11-1.4,4.3-2.59,6.54-3.56,1.67-.73,3.36-1.34,5.08-1.83h0c17.15-4.95,36.24,1.48,46.64,17.14l63.6,95.76.17.25,6.75,10.17,17.11,25.77Z"/><path fill="#112e5b" d="m497.29,338.94s-61.82-13.79-89.94,33.6l-33.71-148.13s20.46-11,46.14,6.59c25.68,17.59,77.51,107.94,77.51,107.94Z"/><polygon fill="#112e5b" points="478.35 561 90.07 561 103.35 490.03 119.26 405.03 119.24 395.91 119.24 392.57 119.24 391.22 119.23 383.18 119.22 378 119.02 229.08 133.53 227.27 146.86 225.61 180.86 221.38 221.97 216.26 267.62 216.26 298.53 221.49 315.01 222.12 373.67 224.39 379.18 224.61 379.18 224.61 399.84 294.7 407.33 320.1 418.56 358.19 418.82 359.07 426.18 384.04 434.89 413.56 436.41 418.75 436.52 419.1 452.62 473.74 478.35 561"/><path fill="#7c4b33" d="m318.97,223.39s-11.89,25.2-50.88,33.76-89.4-35.19-89.4-35.19c39.94-9.51,29.01-75.13,29.01-75.13,0,0,15.22-18.07,50.4-11.89,19.58,3.44,27.53,11.3,30.72,17.59,2.55,5.02,2.09,9.04,2.09,9.04,0,0-6.66,15.22,0,36.14.92,2.89,2.12,5.46,3.5,7.77,8.65,14.38,24.56,17.91,24.56,17.91Z"/><path d="m294.42,205.48c-.67.27-1.36.54-2.07.79-43.75,15.69-74.18-50.4-74.18-50.4l64.54-8.89s2.57,2.1,6.13,5.55c2.55,5.02,2.09,9.04,2.09,9.04,0,0-6.66,15.22,0,36.14.92,2.89,2.12,5.46,3.5,7.77Z"/><polygon fill="#CE5384" points="209.13 283.49 198.87 288.49 183.43 319.78 195.88 313.84 203.13 297.24 271.5 437.7 365.77 392.34 366.88 388.1 295.5 241.45 209.13 283.49"/><polygon fill="#fff" points="365.77 392.34 360.27 410.36 262.47 457.7 192.89 315.3 207.39 287.51 294.18 245.27 365.77 392.34"/><path d="m262.19,458.49l-69.97-143.2,14.73-28.23.18-.09,87.33-42.51.26.53,71.69,147.29-5.65,18.49-.23.11-98.33,47.6Zm-68.64-143.18l69.19,141.6,97.03-46.97,5.36-17.55-71.23-146.33-86.08,41.9-14.27,27.35Z"/><rect width="119.59" height="159.06" x="212.22" y="285.61" fill="#CE5384" transform="rotate(-25.95 272.084 365.19)"/><rect width="89.4" height="45.65" x="208.82" y="306.23" fill="#ffcc83" transform="rotate(-25.95 253.594 329.097)"/><path d="M196.86 308.31c-.22 0-.43-.12-.53-.33-.14-.29-.02-.65.27-.79l92.78-45.16c.29-.14.65-.02.79.27.14.3.02.65-.27.79l-92.78 45.16c-.08.04-.17.06-.26.06zM200.76 301.12c-.22 0-.43-.12-.53-.33-.14-.29-.02-.65.27-.79l89.36-43.5c.29-.14.65-.02.79.27.14.3.02.65-.27.79l-89.36 43.5c-.08.04-.17.06-.26.06zM204.67 293.93c-.22 0-.43-.12-.53-.33-.14-.3-.02-.65.27-.79l88.08-42.87c.29-.14.65-.02.79.27.14.3.02.65-.27.79l-88.08 42.87c-.08.04-.17.06-.26.06zM17.97 351.3s-12.36 8.56 23.3 27.58c35.66 19.02 82.74 23.78 87.02 10.94s-75.61-48.5-110.32-38.52z"/><path fill="#7c4b33" d="m193.94,128.96c3.16-5.8,9.01-9.3,15.54-10.07,1.97-28.43,19.94-46.47,44.57-47.07,26.66-.65,51.01,19.37,51.8,51.95.8,32.58-1.85,59.07-28.5,59.73-14.93.36-34.22-7.46-48.45-20.13-8.57.4-18.38-1.69-24.5-5.03-11.27-6.15-15.96-19.3-10.46-29.38Z"/><path d="m200.73,146.13l-1.74-.77c2.7-6.13,7.28-11.52,12.89-15.18l1.04,1.59c-5.31,3.46-9.64,8.56-12.2,14.35Z"/><rect width="1.9" height="9.01" x="204.91" y="138.39" transform="rotate(-24.88 205.836 142.883)"/><ellipse cx="258.5" cy="122.44" rx="3.02" ry="4.21" transform="rotate(-1.4 258.41 122.262)"/><ellipse cx="289.82" cy="120.66" rx="3.02" ry="4.21" transform="rotate(-1.4 289.536 120.596)"/><path d="M289.55 142.32c-5.59-1.98-10.25-6.18-12.8-11.54-2.55-5.35-2.87-11.63-.88-17.21l1.79.64c-1.82 5.11-1.53 10.86.8 15.76 2.33 4.9 6.61 8.75 11.72 10.56l-.63 1.79zM277.43 156.95c-8.56-.09-16.68-5.4-20.21-13.2l1.73-.78c3.18 7.03 10.79 12 18.5 12.08l-.02 1.9z"/><path d="M276.3 184.46c-15.21 0-33.79-7.81-47.75-20.12-8.48.32-18.33-1.73-24.61-5.16-5.66-3.08-9.9-7.96-11.96-13.73-2.07-5.81-1.67-11.82 1.12-16.94 3.08-5.65 8.7-9.43 15.49-10.46 2.24-28.07 20.01-46.56 45.43-47.18l.05 1.9c-24.61.6-41.74 18.73-43.64 46.19l-.05.78-.78.09c-6.52.77-11.92 4.26-14.82 9.58-2.53 4.64-2.88 10.1-1 15.39 1.9 5.33 5.83 9.84 11.08 12.7 6.1 3.32 15.74 5.3 24 4.91l.39-.02.29.26c13.76 12.26 32.98 20.25 47.79 19.89 5.04-.12 9.4-1.22 12.94-3.27l.95 1.64c-3.82 2.21-8.48 3.39-13.84 3.52-.35 0-.71.01-1.06.01zM455.92 485.87c-.41 0-.79-.27-.91-.68l-70.85-241.08c-.15-.5.14-1.03.64-1.18.5-.15 1.03.14 1.18.64l70.85 241.08c.15.5-.14 1.03-.64 1.18-.09.03-.18.04-.27.04z"/><path fill="#7c4b33" d="m185.65,422.96l-9.74,70.17c-3.62.13-7.51.23-11.63.27-17.3.19-38.6-.5-60.94-3.36-26.51-3.39-54.49-9.82-79.01-21.42-8.87-4.2-16.17-10.42-21.58-17.86v-65.01l15.34-24.15,6.54-10.29c.1.07.19.14.28.2,31.23,22.91,59.28,33.27,93.57,40.9.25.06.5.11.76.17,1.85.41,3.72.81,5.61,1.2,13.66,2.86,28.35,5.39,44.64,8.18.3.05.6.1.9.16,9.88,1.69,16.64,10.91,15.26,20.85Z"/><path fill="#7c4b33" d="m174.8,304.96l-49.99,77.61-2.02,3.13-3.56,5.52-.58.9-.18.28-2.66,4.13-31.06,48.23c-15.07,23.4-46.26,30.15-69.66,15.08h-.01c-4.84-3.12-8.96-6.93-12.33-11.21v-62.73l15.5-24.07,6.65-10.33.28-.44.79-1.23,64.06-99.47c6.99-10.85,17.45-18.12,28.98-21.29,4.71-1.3,9.6-1.92,14.51-1.81h0c8.99.19,18.05,2.79,26.17,8.02h.01c23.4,15.08,30.15,46.27,15.08,69.67Z"/><path fill="#112e5b" d="m17.97,351.3s53.26-5.71,110.32,38.52l66.57-108.89s-7.61-45.65-42.8-54.21c-35.19-8.56-59.44,7.13-79.41,39.47-19.97,32.33-54.68,85.12-54.68,85.12Z"/><path fill="#7c4b33" d="m449.74,352.73s-8.08-20.92-18.55-37.57c-10.46-16.64-8.08-29.96-6.18-38.52,1.9-8.56-20.92-7.13-23.78,11.41-2.85,18.54-13.79,33.76-20.92,32.81s-46.6.95-61.34-8.56c-14.74-9.51-25.68,2.85-17.59,13.31,8.08,10.46,23.3,15.22,23.3,15.22,0,0-17.59,4.76,3.8,27.1,0,0-12.36,9.99,4.76,26.15,0,0-6.66,10.46,11.89,18.54,18.55,8.08,85.12,6.66,85.12,6.66,0,0,31.38,0,37.09-24.73,5.71-24.73-17.59-41.84-17.59-41.84Z"/><path fill="#7c4b33" d="m513.46,388.39v97.48c-20.15,9.12-44.92,4.99-60.82-12.11,0,0-.01-.01-.02-.02-1.77-1.9-3.42-3.97-4.95-6.19l-33.11-48.16-24.25-35.27,6.56-27.8,3.46-14.68,5.34-22.61,1.68,1.08.19.12,35.26,22.69.34.22,3.61,2.33,23.78,15.3,4.07,2.62,38.88,25.02Z"/><path d="M128.29 390.77c-.17 0-.34-.05-.49-.14-.45-.27-.59-.86-.32-1.31l51.36-84.16c.27-.45.86-.59 1.31-.32.45.27.59.86.32 1.31l-51.36 84.16c-.18.29-.49.46-.81.46zM510.61 387.44c-.18 0-.35-.05-.51-.15l-63.72-40.89c-.44-.28-.57-.87-.29-1.31.28-.44.87-.57 1.31-.29l63.72 40.89c.44.28.57.87.29 1.31-.18.28-.49.44-.8.44zM427.59 420.49c-4.4 0-8.79-.31-13.17-.95-.52-.07-.88-.56-.81-1.08.07-.52.56-.88 1.08-.81 9.87 1.42 19.83 1.21 29.63-.64.52-.1 1.01.24 1.11.76.1.52-.24 1.01-.76 1.11-5.65 1.07-11.37 1.6-17.08 1.6zM150.17 399.33s-.09 0-.14 0c-16.11-2.3-43.01-8.05-65.82-16.69-.49-.19-.74-.74-.55-1.23.19-.49.74-.74 1.23-.55 22.67 8.59 49.41 14.3 65.42 16.59.52.07.88.56.81 1.08-.07.47-.47.82-.94.82z"/><path fill="#141414" d="m197.72,122.58s12.84-9.99,38.52,18.07l-12.36-34.71s16.17-4.76,12.36-17.59c0,0,40.88,23.97,73.23,4.28,21.87-13.31,30.89-40.9,16.64-44.7-14.27-3.8-19.02,9.51-38.52,13.79-19.5,4.28-63.72,2.85-72.75,19.5-9.03,16.64-23.3,25.2-17.12,41.37Z"/><rect width="111.99" height="35.66" x="17.74" y="11.78" fill="#CE5384" rx="11.05" ry="11.05"/><path fill="#fff" d="M52.21 20.02h5.7v12.88h6.86v4.46h-12.56v-17.34zM67.24 20.02h5.7v17.34h-5.7v-17.34zM74.92 20.02h5.85l3.07 12.63h.47l3.1-12.63h5.77l-4.61 17.34h-9.04l-4.61-17.34zM95.16 20.02h14.69v4.46h-9.09v1.98h9.09v4.46h-9.09v1.98h9.09v4.46h-14.69v-17.34z"/><circle cx="37.71" cy="29.62" r="4.52" fill="#fff"/><path fill="#7c4b33" d="m160.15,411.21l52.32-51.9c3.99-3.96,10.03-5.02,15.13-2.65l21.95,10.19c5.69,2.64,9.08,8.6,8.44,14.84l-.83,8.12,2.25,1.53c5.81,3.95,8.58,11.07,6.97,17.91l-3.04,12.9.77.53c2.78,1.91,4.03,4.43,4.57,7.39.49,2.72.25,5.52-.56,8.17l-1.45,4.77c-.96,3.14-3.27,5.68-6.31,6.92l-6.53,2.66-2.53,8.22c-2.25,5.19-7.16,8.74-12.79,9.24l-27.95,2.51s-21.4,26.15-48.5,20.45c-27.1-5.71-35.19-47.08-23.3-63.72,11.89-16.64,21.4-18.07,21.4-18.07Z"/><path d="M257.16 390.77c-.1 0-.2-.02-.3-.05l-31.38-10.46c-.5-.17-.77-.7-.6-1.2.17-.5.7-.77 1.2-.6l31.38 10.46c.5.17.77.7.6 1.2-.13.4-.5.65-.9.65zM263.34 423.58c-.1 0-.2-.02-.3-.05l-42.8-14.27c-.5-.17-.77-.7-.6-1.2.17-.5.7-.77 1.2-.6l42.8 14.27c.5.17.77.7.6 1.2-.13.4-.5.65-.9.65zM253.35 453.06c-.1 0-.2-.02-.3-.05l-37.57-12.36c-.5-.16-.77-.7-.61-1.2.16-.5.7-.77 1.2-.61l37.57 12.36c.5.16.77.7.61 1.2-.13.4-.5.65-.9.65zM208.93 469.05c-.49 0-.9-.37-.95-.86-.05-.52.34-.99.86-1.04l23.5-2.2c.52-.05.99.34 1.04.86.05.52-.34.99-.86 1.04l-23.5 2.2s-.06 0-.09 0zM365.58 348.45c-.05 0-.1 0-.15-.01l-40.89-6.66c-.52-.08-.87-.57-.79-1.09.08-.52.57-.88 1.09-.79l40.89 6.66c.52.08.87.57.79 1.09-.08.47-.48.8-.94.8zM361.28 374.23c-.05 0-.1 0-.15-.01l-32.8-5.34c-.52-.08-.87-.57-.79-1.09.08-.52.57-.87 1.09-.79l32.8 5.34c.52.08.87.57.79 1.09-.08.47-.48.8-.94.8zM359.38 399.43c-.05 0-.1 0-.15-.01l-26.16-4.26c-.52-.08-.87-.57-.79-1.09.08-.52.57-.87 1.09-.79l26.16 4.26c.52.08.87.57.79 1.09-.08.47-.48.8-.94.8z"/><path d="m211.02,472.29c-.06,0-.13,0-.19-.02-.51-.1-.85-.61-.74-1.12.15-.75.33-1.32.51-1.87.17-.52.33-1.02.46-1.67.1-.51.6-.85,1.12-.74.51.1.85.61.74,1.12-.15.75-.33,1.32-.51,1.87-.17.52-.33,1.02-.46,1.67-.09.45-.49.76-.93.76Z"/><rect width="167.4" height="7.91" x="337.03" y="148.43" fill="#f2f2f2" rx="2.57" ry="2.57"/><path fill="#32ce95" d="m353.48,105.61c-1.46-.22-3.21-.22-4.1.96-1.13,1.5.02,3.63,1.27,5.02,3.04,3.39,17.52,14.49,21.37,7.62,3.86-6.89-14.17-12.95-18.54-13.6Z"/><path fill="#32ce95" d="m374.54,95.67c-.08-2.83-.38-5.74-1.73-8.23s-3.95-4.48-6.78-4.35c-3.49.16-6.18,3.47-6.84,6.9s.24,6.95,1.13,10.33c1.73,6.56,3.45,13.12,5.18,19.68,2.09,7.95,6.1-4.23,6.76-6.51,1.66-5.78,2.44-11.81,2.28-17.83Z"/><path fill="#32ce95" d="m378.85,116.02c1.92-2.22,3.37-4.78,4.82-7.33,3.62-6.38,7.28-12.86,9.08-19.97.35-1.4.63-2.91.1-4.25-.77-1.94-3.09-2.93-5.16-2.69s-3.91,1.45-5.46,2.84c-4.83,4.3-7.69,10.45-9.13,16.76-1.14,5.03-1.45,10.21-1.58,15.36-.06,2.31-.6,4.71,2.34,3.31,1.93-.92,3.6-2.42,4.99-4.02Z"/><path fill="#32ce95" d="m386.5,117.52c4.15-1.67,7.9-4.97,8.92-9.32.2-.85.28-1.79-.15-2.55-.76-1.35-2.69-1.45-4.2-1.07-2.78.7-5.19,2.4-7.47,4.14-3.13,2.38-6.14,4.91-9.04,7.57-.63.57-2.48,2.38-1.43,3.29.67.58,3.21-.04,4.02-.11,3.18-.27,6.37-.76,9.35-1.95Z"/><path fill="#b8c2d8" d="M386.81 148.44h-31.03c-2.94 0-5.11-2.75-4.42-5.62l5.23-21.7c.49-2.04 2.32-3.48 4.42-3.48h23.18c2.3 0 4.24 1.72 4.52 4.01l2.61 21.7c.33 2.71-1.79 5.09-4.52 5.09zM432.35 91.66h9.37c1.61 0 2.92 1.31 2.92 2.92v53.86h-15.22v-53.86c0-1.61 1.31-2.92 2.92-2.92z"/><path fill="#ffcc83" d="m408.86,80.24h8.73c1.79,0,3.24,1.45,3.24,3.24v62.89c0,1.65-1.34,2.98-2.98,2.98h-9.25c-1.65,0-2.98-1.34-2.98-2.98v-62.89c0-1.79,1.45-3.24,3.24-3.24Z" transform="rotate(24.27 413.21 114.783)"/><path fill="#7c4b33" d="m448.52,83.12h8.95c1.73,0,3.13,1.4,3.13,3.13v62.18h-15.22v-62.18c0-1.73,1.4-3.13,3.13-3.13Z"/><path fill="#fad0c9" d="m464.44,84.98h9.04c1.7,0,3.09,1.38,3.09,3.09v60.37h-15.22v-60.37c0-1.7,1.38-3.09,3.09-3.09Z"/><path fill="#ffbc97" d="m479.76,108.36h10.31c1.35,0,2.45,1.1,2.45,2.45v37.63h-15.22v-37.63c0-1.35,1.1-2.45,2.45-2.45Z"/><path d="M262.64 140.41c-5.38 0-9.76-6.4-9.76-14.27s4.38-14.27 9.76-14.27 9.77 6.4 9.77 14.27-4.38 14.27-9.77 14.27zm0-26.63c-4.34 0-7.86 5.55-7.86 12.36s3.53 12.36 7.86 12.36 7.86-5.55 7.86-12.36-3.53-12.36-7.86-12.36zM291.85 137.08c-5.38 0-9.77-6.4-9.77-14.27s4.38-14.27 9.77-14.27 9.77 6.4 9.77 14.27-4.38 14.27-9.77 14.27zm0-26.63c-4.34 0-7.86 5.55-7.86 12.36s3.53 12.36 7.86 12.36 7.86-5.55 7.86-12.36-3.53-12.36-7.86-12.36z"/><rect width="44.29" height="1.9" x="211.48" y="118.54" transform="rotate(-3.08 233.527 119.436)"/><rect width="12.37" height="1.9" x="271.42" y="120.92" transform="rotate(-2.21 277.718 121.792)"/></g><g transform="translate(312.32 143.73)"><path fill="#3B82F6" d="m123.71,80.35H-2.68c-8.98,0-16.27,7.29-16.27,16.28v33.36c0,8.98,7.29,16.27,16.27,16.27h86.48s49.17,16.77,49.17,16.77l-5.5-17.22c7.17-1.69,12.52-8.14,12.51-15.83v-33.36c0-8.98-7.29-16.27-16.27-16.27Z"/><path d="m133.56,163.62l-49.82-17H-2.67c-9.18,0-16.65-7.46-16.65-16.64v-33.36c0-9.18,7.46-16.65,16.64-16.65h126.39c9.18,0,16.65,7.46,16.65,16.64v33.36c0,7.62-5.08,14.18-12.41,16.1l5.61,17.55ZM-2.68,80.74c-8.76,0-15.88,7.13-15.88,15.89v33.36c0,8.76,7.13,15.88,15.89,15.88h86.54s.06.02.06.02l48.45,16.53-5.4-16.89.4-.09c7.2-1.7,12.22-8.06,12.22-15.46v-33.36c0-8.76-7.13-15.88-15.89-15.88H-2.68Z"/><path fill="#fff" d="M19.16 128.28c-1.4 0-2.75-.55-3.74-1.54l-11.93-11.93c-4.71-4.7-4.72-12.32-.02-17.03 4.22-4.23 10.9-4.73 15.69-1.17 5.35-3.96 12.89-2.84 16.85 2.51 3.55 4.8 3.06 11.48-1.17 15.69l-11.93 11.93c-.99.99-2.34 1.55-3.74 1.55zM52.26 110.83v-7.16c2.92-.42 5.7-1.6 7.71-4.28h6.05s0 24.33 0 24.33h-9.59s0-13.87 0-13.87c-1.43.59-2.88.9-4.17.97zM77.46 116.66c2.22 0 3.55-.52 3.55-2.02s-1.49-2.4-3.65-2.4c-1.84 0-3.68.35-5 1.29l-1.53-.76 2.12-13.38h16.16s0 6.88 0 6.88h-10.46s-.35 1.95-.35 1.95c.87-.14 1.81-.21 2.78-.21 5.35 0 9.25 2.81 9.25 7.72s-4.1 8.62-11.36 8.62c-3.93 0-8.55-1.18-10.98-3.82l3.68-5.84c1.29 1.11 3.86 1.98 5.8 1.98zM102.41 98.69c5.8 0 10.04 2.81 10.04 8.1 0 3.61-1.98 6.08-6.6 9.77h7.09s0 7.12 0 7.12h-21.55s0-1.04 0-1.04l6.74-7.02c3.79-3.93 5.07-5.42 5.07-6.78s-.97-2.26-2.47-2.26c-1.56 0-2.68 1.04-2.95 2.82l-7.06-2.12c.69-5.14 4.83-8.58 11.68-8.59z"/><rect width="140.01" height="65.89" x="489.56" y=".65" fill="#3B82F6" rx="16.27" ry="16.27"/><path d="m613.31,66.92h-107.48c-9.18,0-16.65-7.46-16.65-16.64V16.92c0-9.18,7.46-16.65,16.64-16.65h107.48c9.18,0,16.65,7.46,16.65,16.64v33.36c0,9.18-7.46,16.65-16.64,16.65ZM505.83,1.03c-8.76,0-15.88,7.13-15.88,15.89v33.36c0,8.76,7.13,15.88,15.89,15.88h107.48c8.76,0,15.88-7.13,15.88-15.89V16.91c0-8.76-7.13-15.88-15.89-15.88h-107.48Z"/><path fill="#fff" d="M569.71 20.17c5.8 0 10.04 2.81 10.04 8.1 0 3.61-1.98 6.08-6.6 9.77h7.09s0 7.12 0 7.12h-21.55s0-1.04 0-1.04l6.74-7.02c3.79-3.93 5.07-5.42 5.07-6.78s-.97-2.26-2.47-2.26c-1.56 0-2.68 1.04-2.95 2.82l-7.06-2.12c.69-5.14 4.83-8.58 11.68-8.59zM593.87 20.17c7.12 0 11.96 5.25 11.96 12.75 0 7.61-4.83 12.89-11.95 12.89-7.12 0-11.92-5.28-11.92-12.89 0-7.47 4.8-12.76 11.92-12.76zm.04 17c1.98 0 2.99-1.63 2.99-4.24 0-2.64-1.01-4.24-2.99-4.24-1.98 0-2.99 1.63-2.99 4.24s1.01 4.24 2.99 4.24zM545.13 26.47c-.97-1.16-2.41-1.84-3.92-1.83h-7.76s.82-2.21.82-2.21c.58-1.46.67-3.07.27-4.58-.85-3.03-3.61-5.12-6.76-5.13-.67 0-1.29.4-1.56 1.01l-4.85 10.91v22.13s17.67 0 17.67 0c2.47 0 4.58-1.77 5.02-4.19l2.17-11.92c.27-1.49-.13-3.02-1.1-4.18z"/><path fill="#112e5b" d="m521.38,24.64h-4c-2.82,0-5.1,2.29-5.11,5.11v11.92c0,2.82,2.29,5.1,5.11,5.11h4s0-22.13,0-22.13h0Z"/><path d="M405.71 473.84c-.11 0-.22-.07-.27-.18l-3.77-8.92c-.06-.15 0-.32.16-.39.15-.06.32 0 .39.16l3.77 8.92c.06.15 0 .32-.16.39-.04.02-.08.02-.11.02zM434.54 474.09s-.07 0-.11-.02c-.15-.06-.22-.23-.16-.38l3.64-8.97c.06-.15.23-.22.38-.16.15.06.22.23.16.38l-3.64 8.97c-.05.11-.16.18-.27.18zM454.74 494.65c-.11 0-.22-.07-.27-.18-.06-.15 0-.32.16-.39l8.92-3.77c.15-.06.32 0 .39.16.06.15 0 .32-.16.39l-8.92 3.77s-.08.02-.11.02zM463.46 527.13s-.07 0-.11-.02l-8.97-3.64c-.15-.06-.22-.23-.16-.38.06-.15.23-.22.38-.16l8.97 3.64c.15.06.22.23.16.38-.05.11-.16.18-.27.18zM437.7 552.61c-.11 0-.22-.07-.27-.18l-3.77-8.92c-.06-.15 0-.32.16-.39.15-.06.32 0 .39.16l3.77 8.92c.06.15 0 .32-.16.39-.04.02-.08.02-.11.02zM401.46 552.41s-.07 0-.11-.02c-.15-.06-.22-.23-.16-.38l1.46-3.6c.06-.15.23-.22.38-.16.15.06.22.23.16.38l-1.46 3.6c-.05.11-.16.18-.27.18z"/><path d="M402.92 548.81s-.07 0-.11-.02c-.15-.06-.22-.23-.16-.38l2.18-5.37c.06-.15.23-.22.38-.16.15.06.22.23.16.38l-2.18 5.37c-.05.11-.16.18-.27.18zM375.97 526.65c-.11 0-.22-.07-.27-.18-.06-.15 0-.32.16-.39l4.46-1.88c.15-.06.32 0 .39.16.06.15 0 .32-.16.39l-4.46 1.88s-.08.02-.11.02z"/><path d="M380.43 524.76c-.11 0-.22-.07-.27-.18-.06-.15 0-.32.16-.39l4.46-1.88c.15-.06.32 0 .39.16.06.15 0 .32-.16.39l-4.46 1.88s-.08.02-.11.02zM385.14 494.05s-.07 0-.11-.02l-7.05-2.86c-.15-.06-.22-.23-.16-.38.06-.15.23-.22.38-.16l7.05 2.86c.15.06.22.23.16.38-.05.11-.16.18-.27.18zM419.89 471.1c-.16 0-.29-.13-.3-.29l-.05-3.94c0-.16.13-.3.29-.3h0c.16 0 .29.13.3.29l.05 3.94c0 .16-.13.3-.29.3h0zM446.5 482.18c-.07 0-.15-.03-.21-.08-.12-.11-.12-.3 0-.42l5.74-5.9c.11-.12.3-.12.42 0 .12.11.12.3 0 .42l-5.74 5.9c-.06.06-.13.09-.21.09zM457.49 508.83c-.16 0-.29-.13-.3-.29 0-.16.13-.3.29-.3l4.84-.07h0c.16 0 .29.13.3.29 0 .16-.13.3-.29.3l-4.84.07h0zM449.22 538.18c-.07 0-.15-.03-.21-.08l-2.81-2.73c-.12-.11-.12-.3 0-.42.11-.12.3-.12.42 0l2.81 2.73c.12.11.12.3 0 .42-.06.06-.13.09-.21.09zM419.85 553.34c-.16 0-.29-.13-.3-.29l-.1-6.9c0-.16.13-.3.29-.3h0c.16 0 .29.13.3.29l.1 6.9c0 .16-.13.3-.29.3h0zM391.06 537.49c-.07 0-.15-.03-.21-.08-.12-.11-.12-.3 0-.42l2.07-2.13c.11-.12.3-.12.42 0 .12.11.12.3 0 .42l-2.07 2.13c-.06.06-.13.09-.21.09zM376.31 508.78c-.16 0-.29-.13-.3-.29 0-.16.13-.3.29-.3l5.84-.08h0c.16 0 .29.13.3.29 0 .16-.13.3-.29.3l-5.84.08h0zM393.23 482.08c-.07 0-.15-.03-.21-.08l-3.82-3.72c-.12-.11-.12-.3 0-.42.11-.12.3-.12.42 0l3.82 3.72c.12.11.12.3 0 .42-.06.06-.13.09-.21.09zM405.71 473.84c-.11 0-.22-.07-.27-.18l-3.77-8.92c-.06-.15 0-.32.16-.39.15-.06.32 0 .39.16l3.77 8.92c.06.15 0 .32-.16.39-.04.02-.08.02-.11.02zM434.54 474.09s-.07 0-.11-.02c-.15-.06-.22-.23-.16-.38l3.64-8.97c.06-.15.23-.22.38-.16.15.06.22.23.16.38l-3.64 8.97c-.05.11-.16.18-.27.18zM454.74 494.65c-.11 0-.22-.07-.27-.18-.06-.15 0-.32.16-.39l8.92-3.77c.15-.06.32 0 .39.16.06.15 0 .32-.16.39l-8.92 3.77s-.08.02-.11.02zM463.46 527.13s-.07 0-.11-.02l-8.97-3.64c-.15-.06-.22-.23-.16-.38.06-.15.23-.22.38-.16l8.97 3.64c.15.06.22.23.16.38-.05.11-.16.18-.27.18zM437.7 552.61c-.11 0-.22-.07-.27-.18l-3.77-8.92c-.06-.15 0-.32.16-.39.15-.06.32 0 .39.16l3.77 8.92c.06.15 0 .32-.16.39-.04.02-.08.02-.11.02zM401.46 552.41s-.07 0-.11-.02c-.15-.06-.22-.23-.16-.38l3.64-8.97c.06-.15.23-.22.38-.16.15.06.22.23.16.38l-3.64 8.97c-.05.11-.16.18-.27.18z"/><path d="M375.97 526.65c-.11 0-.22-.07-.27-.18-.06-.15 0-.32.16-.39l8.92-3.77c.15-.06.32 0 .39.16.06.15 0 .32-.16.39l-8.92 3.77s-.08.02-.11.02zM385.14 494.05s-.07 0-.11-.02l-8.97-3.64c-.15-.06-.22-.23-.16-.38.06-.15.23-.22.38-.16l8.97 3.64c.15.06.22.23.16.38-.05.11-.16.18-.27.18z"/><path fill="#3B82F6" d="m428.05,527.97c-1.61.68-3.42.7-5.04.04l-19.44-7.9c-7.67-3.1-11.36-11.83-8.26-19.5,2.79-6.88,10.19-10.68,17.41-8.93,4.21-7.12,13.39-9.48,20.51-5.27,6.39,3.78,9.05,11.66,6.25,18.54l-7.89,19.44c-.66,1.62-1.93,2.91-3.54,3.58Z"/><path fill="#ffcc83" d="m736.5,144.48c-16.76,9.45-22.69,30.71-13.23,47.47,9.45,16.76,30.71,22.69,47.47,13.23,16.76-9.45,22.69-30.71,13.23-47.47-9.45-16.76-30.71-22.69-47.47-13.23Zm32.69,29.58c3.77,6.71,1.41,15.2-5.29,18.99-6.71,3.77-15.2,1.41-18.99-5.29-.95-1.67-.35-3.8,1.32-4.75h0s18.21-10.27,18.21-10.27c1.67-.95,3.8-.35,4.75,1.32h0Z"/><circle cx="759.31" cy="163.63" r="3.48" fill="#112e5b"/><circle cx="741.09" cy="173.9" r="3.48" fill="#112e5b"/><path fill="#112e5b" d="m763.9,193.05c-6.71,3.77-15.2,1.41-18.99-5.29-.95-1.67-.35-3.8,1.32-4.75h0s18.21-10.27,18.21-10.27c1.67-.95,3.8-.35,4.75,1.32h0c3.77,6.71,1.41,15.21-5.29,18.99Z"/></g><g transform="translate(666.389 166.068) scale(.73578)"><path fill="#fad0c9" d="m253.76,889.06l-3.15,59.8s.9,20.68,34.17,24.73c33.27,4.05,40.47-17.99,40.47-17.99l17.6-60.93-89.09-5.61Z"/><rect width="69.17" height="191.75" x="233.91" y="67.93" fill="#fad0c9" rx="34.58" ry="34.58" transform="rotate(-5.05 268.605 163.847)"/><path fill="#fad0c9" d="M303.84 364.96c-2.4.49-4.78.73-7.14.73-.49 0-.98 0-1.46-.03-15.78-.66-29.69-11.94-33.02-28.1l-17.32-84.14-4.56-22.17c-3.93-19.06 8.35-37.69 27.4-41.61 19.06-3.92 37.69 8.35 41.61 27.41l2.23 10.83 15.74 76.5 3.91 18.98c3.92 19.06-8.34 37.69-27.4 41.61zM215.39 73.55s-9.74 6.62-5.7 16.06c4.05 9.44 26.53 8.54 29.68 0s-2.25-11.69-2.25-11.69l-21.73-4.37zM287.48 54.09s-9.49-21.36-31.82-25.87c-2.91-.59-5.93.02-8.4 1.66-5.19 3.46-13.57 10.23-11.04 16.56 3.6 8.99 17.99 31.02 35.07 22.93 17.09-8.09 16.19-15.29 16.19-15.29z"/><path fill="#7c4b33" d="m381.34,197.45s16.75-5.32,32.03,3.67c15.29,8.99,28.78,39.12,4.95,55.31-23.83,16.19-36.98-58.98-36.98-58.98Z"/><path fill="#fad0c9" d="m389.1,700.66l35.97-10.34s23.83-10.79,17.54-57.1c-6.29-46.31-53.51-31.02-53.51-31.02v98.47Z"/><path d="m419.26,722.82c-.12,0-.25-.02-.37-.05-1.63-.48-1.47-2.83-1.39-4.09l.02-.28c.21-3.56.76-7.17,1.65-10.74.89-3.57,2.1-7.07,3.62-10.38.75-1.64,1.58-3.25,2.46-4.78.11-.19.4-.59.76-1.09.59-.82,1.83-2.51,1.87-2.88,0,0,0,.02,0,.06l.69-.19s0,0,0,0c1.84,6.77,1.66,14.17-.5,20.84-1.23,3.79-3.07,7.32-5.48,10.49-.11.14-.24.33-.38.53-.73,1.05-1.79,2.57-2.95,2.57Zm8.88-33.24c-.31.51-.81,1.22-1.55,2.24-.34.47-.63.87-.72,1.02-.87,1.52-1.69,3.1-2.43,4.72-1.49,3.27-2.7,6.72-3.57,10.25-.87,3.53-1.42,7.09-1.63,10.61l-.02.29c-.08,1.14-.21,3.04.87,3.36.81.24,1.89-1.31,2.53-2.24.15-.21.28-.41.4-.56,2.36-3.11,4.17-6.56,5.37-10.27h0c2.01-6.21,2.27-13.06.75-19.42Z"/><path fill="#ffbc97" d="m507.58,619.11l-18.42.61s2.91,6.36,15.86,16.82l-2.76,79.16c.16,18.11-12.38,33.49-30.64,33.06-4.37-.1-8.66-.59-12.66-1.82-9.79-2.99-17.94-10.42-21.8-27.46-11.6-51.24-5.36-66.38-5.36-66.38l-1.14-61.12c9.63-2.73,20.13-5.39,44.75-7.03,8.48-.57,18.63-1.01,31-1.29l1.18,35.46Z"/><path fill="#ffbc97" d="m422.48,690.54l34.1-9s1.42-20.63,3.27-63.99c1.76-41.43-25.97-23.43-40.41-24.75l3.05,97.74Z"/><path d="m507.58,619.11l-18.42.61s2.91,6.36,15.86,16.82l-2.76,79.16c.16,18.11-12.38,33.49-30.64,33.06-4.37-.1-8.66-.59-12.66-1.82,12.52-1.92,30.37-10.44,29.85-43.52-.45-28.53-1.07-45.43-1.53-54.75-.32-6.38-1.95-12.62-4.79-18.34l-3.74-7.52c-1.46-2.93-2.27-6.14-2.38-9.41l-.95-28.43c8.48-.57,18.63-1.01,31-1.29l1.18,35.46Z"/><rect width="25.85" height="1.16" x="426.93" y="685.56" transform="rotate(-14.96 439.916 686.206)"/><path d="M431.04 697.04l-.63-.34c3.76-6.88 5.33-14.95 4.43-22.74l.71-.08c.92 7.93-.68 16.16-4.51 23.16zM429.08 703.89l-.4-.59c7.91-5.41 14.3-13.26 17.99-22.11l.66.28c-3.74 8.97-10.22 16.94-18.25 22.42z"/><polygon fill="#ff9996" points="437.21 435.83 444.85 508.67 198.91 464.61 314.01 278.91 321.51 281.1 323.42 281.66 332.45 284.3 387.75 291.94 447.1 304.98 451.61 306.34 453.34 306.85 474.08 313.08 437.21 435.83"/><path fill="#fad0c9" d="m242.07,39.7s-20.68,1.35-20.68,15.29,22.03,23.38,27.88,21.58c5.85-1.8,9.89-1.35,12.14-14.39,0,0,.9-13.94-19.33-22.48Z"/><path fill="#7c4b33" d="m406.95,694.39l-3.56-96.22c-.09-2.57,1.76-4.79,4.3-5.16l8.41-1.22c2.96-.43,5.64,1.8,5.75,4.79l3.56,96.22c.09,2.57-1.76,4.79-4.3,5.16l-8.41,1.22c-2.96.43-5.64-1.8-5.75-4.79Z"/><path fill="#fad0c9" d="m224.53,54.09l-9.9,7.2c-2.87,2.09-3.57,6.08-1.58,9.02,3.58,5.27,9.56,12.6,15.53,13.46,9.44,1.35,23.83,2.7,19.33-11.24-4.5-13.94-23.38-18.44-23.38-18.44Z"/><path fill="#fad0c9" d="M231.28 135.47s-13.04-28.33-11.24-46.76c1.8-18.44 36.42-43.17 53.51-27.88 17.09 15.29-7.19 75.99-42.26 74.64zM397.64 328.37c-35.57 1.91-61.15-22.93-71.49-45.86 0 0 26.08 5.4 31.47 1.35 2.88-2.16 5-2.91 7.02-5.95 1.77-2.65 3.47-7.04 5.57-15.63 0 0 3.89-7.78 14.08-10.67 2.77-.79 6-1.21 9.75-1.02 17.54.9 18.43 3.15 18.88 6.29 0 0-10.86 38.56 11.69 43.17 22.03 4.5 22.48 4.95 22.48 4.95 0 0 .9 20.68-49.46 23.38z"/><path d="m408.43,256.42s-15.74,31.47-35.52,27.43c-4.34-.89-6.91-3.08-8.26-5.95,1.77-2.65,3.47-7.04,5.57-15.63,0,0,3.89-7.78,14.08-10.67l24.14,4.83Z"/><polygon fill="#112e5b" points="444.85 508.67 439.55 526.73 439.23 527.85 405.73 642.06 398.87 665.46 390 695.72 342.79 894.46 253.76 889.06 275.64 695.42 278.49 643.11 285.68 554.53 222.38 488.93 221 487.5 198.91 464.61 444.85 508.67"/><path fill="#112e5b" d="m390.9,595.45l.45,104.32-114.8,27.58-54.33,13.21c-129.87,19.92-125.56-90.24-93.45-151.39l60.49-106.17.57-1.08,9.08-17.3,56.75,29.11,3.53,1.82h0l26.94,59-26.53,58,131.29-17.09Z"/><path fill="#fad0c9" d="m430.98,240.47c-1.74-3.64-5.2-5.96-9.17-6.64-.3-17.42-10.69-29-25.7-30.15-16.25-1.25-31.75,10.2-33.28,30.06-1.53,19.86-.76,36.12,15.49,37.37,9.1.7,21.12-3.46,30.21-10.74,5.22.52,11.27-.44,15.12-2.29,7.08-3.39,10.35-11.27,7.32-17.6Z"/><path d="m426.29,250.73c-1.38-3.62-3.86-6.87-6.99-9.15l.68-.94c3.31,2.41,5.93,5.85,7.39,9.68l-1.08.41Z"/><path fill="#fff" d="m424.55,246.16c-.86,1.62-1.72,3.25-2.57,4.87"/><rect width="5.51" height="1.16" x="420.51" y="248.01" transform="rotate(-62.13 423.302 248.597)"/><ellipse cx="391.78" cy="234.43" rx="2.57" ry="1.84" transform="rotate(-85.61 391.772 234.432)"/><ellipse cx="372.72" cy="232.34" rx="2.57" ry="1.84" transform="rotate(-85.61 372.713 232.345)"/><path d="M372.19 245.57l-.33-1.11c3.18-.94 5.91-3.16 7.49-6.07 1.58-2.92 1.94-6.41.99-9.59l1.11-.33c1.04 3.47.64 7.29-1.08 10.48-1.73 3.19-4.71 5.6-8.18 6.63zM379.66 254.9c-.18 0-.36 0-.53-.01l.05-1.16c4.72.2 9.51-2.6 11.68-6.78l1.03.53c-2.32 4.49-7.18 7.42-12.22 7.42z"/><path d="m380.42,271.76c-.72,0-1.43-.03-2.13-.08-3.27-.25-6.08-1.12-8.34-2.59l.63-.97c2.1,1.36,4.72,2.17,7.79,2.41,9.04.69,21.01-3.57,29.81-10.61l.18-.15.23.02c5.03.5,10.98-.4,14.81-2.23,6.78-3.25,9.94-10.8,7.05-16.83-1.6-3.34-4.79-5.65-8.74-6.32l-.47-.08v-.48c-.29-16.82-10.17-28.43-25.17-29.59l.09-1.16c15.5,1.19,25.75,13.04,26.23,30.25,4.11.84,7.42,3.33,9.12,6.88,3.17,6.61-.24,14.85-7.59,18.37-3.94,1.89-10.02,2.83-15.19,2.36-8.44,6.7-19.29,10.8-28.3,10.8Z"/><rect width="69.17" height="191.75" x="346.76" y="325.12" fill="#fad0c9" rx="34.58" ry="34.58" transform="rotate(-28.11 381.428 421.044)"/><path fill="#fad0c9" d="m496.3,345.29c0,4.09-.73,8.26-2.28,12.31l-27.4,71.9-21.69,56.91c-6.8,17.85-26.78,26.8-44.63,20-17.85-6.8-26.8-26.79-20-44.64l27.96-73.37,21.13-55.44c6.8-17.85,26.79-26.8,44.63-20,13.79,5.26,22.27,18.39,22.27,32.32Z"/><path fill="#ff9996" d="m327.34,304.37c-6.54,19.34-18.29,49.07-32.09,61.29-28.45,9.92-29.69-11.94-33.02-28.1l-13.76-66.88-2.2-10.67-1.35-6.58c34.9-1.93,57.79-18.03,66.68-25.55l1.29,6.27,2.58,12.55,11.87,57.68Z"/><path fill="#ffcc83" d="m453.34,306.85c-1.02,2.98-2.6,5.86-4.72,8.52-5.33,6.7-13.85,11.8-24.62,14.77-7.64,2.11-16.36,3.16-26.05,3.16-6.33,0-13.08-.45-20.21-1.35-14.43-1.83-26.39-6.32-35.55-13.35-7.35-5.65-12.9-12.93-16.51-21.64-2.36-5.69-3.57-11.2-4.17-15.86l1.91.56c.62,4.39,1.79,9.49,3.95,14.68,3.49,8.4,8.87,15.42,15.96,20.86,8.89,6.82,20.55,11.18,34.64,12.97,17.81,2.25,33.14,1.66,45.56-1.76,10.4-2.87,18.6-7.76,23.69-14.15,1.97-2.47,3.44-5.16,4.4-7.92l1.73.52Z"/><path fill="#ff9996" d="m496.3,345.29c0,4.09-.73,8.26-2.28,12.31l-20.68,54.26-4.5,11.8-2.23,5.83c-14.97-25.26-45.43-37.06-58.36-41.09l1.12-2.93,3.92-10.28,16.1-42.23c6.8-17.85,26.79-26.8,44.63-20,13.79,5.26,22.27,18.39,22.27,32.32Z"/><path fill="#fad0c9" d="m332,297.79s-13.94-3.6-15.74,9.44c0,0-14.84,0-12.14,11.24,0,0-9.89.9-5.85,13.94,4.05,13.04,18.06,38.38,21.62,46.17,3.56,7.79,35.48,6.44,44.47.59,8.99-5.85,18.43-14.84,17.09-28.33l-1.12-23.66"/><path fill="#fad0c9" d="m380.34,327.19l-.64-13.58c-.28-6.04-4.85-11.01-10.84-11.81l-9.89-1.32s-6.15-10.29-16.19-11.24c-10.04-.95-10.79,8.54-10.79,8.54"/><path d="M224.33 96.93c-1.5 0-2.99-.12-4.42-.35l.19-1.14c7.36 1.22 16.86-.96 18.73-6.03.65-1.77.97-3.44.95-4.95l1.16-.02c.03 1.65-.32 3.46-1.02 5.37-1.72 4.67-8.72 7.12-15.59 7.12zM258.96 71.03c-11.1-3.11-20.16-16.6-23.27-24.37-.78-1.95-.66-4.07.36-6.3l1.06.48c-.88 1.94-.99 3.75-.34 5.39 3.03 7.57 11.81 20.69 22.51 23.68l-.31 1.12zM247.53 77.37c-3.94 0-10.36-2.31-15.62-5.78-6.54-4.32-10.45-9.7-11.03-15.15l1.15-.12c.72 6.88 6.9 11.92 10.51 14.31 6.48 4.28 13.78 6.25 16.55 5.4l.34 1.11c-.54.16-1.18.24-1.91.24z"/><path d="m237.67,85.13c-2.93,0-6.11-.36-9.18-.8-4.13-.59-8.7-4.1-13.57-10.43l.92-.71c4.61,6,9.04,9.45,12.81,9.99,6.9.98,14.4,1.58,17.76-1.51,1.3-1.19,1.87-2.85,1.74-5.05l1.16-.07c.15,2.54-.57,4.54-2.12,5.97-2.13,1.95-5.6,2.6-9.53,2.6Z"/><path fill="#fad0c9" d="m295.49,121.39s6.83-59.21,2.79-64.6c-4.05-5.4-36.56-16.55-41.37-15.29-8.54,2.25-3.6,17.54,11.69,27.88,0,0-23.83,22.03-13.04,49.01,10.79,26.98,35.34,26.24,39.93,3Z"/><path d="M253.68 98.92l-1.15-.16c2.08-15.35 12.68-26.82 15.15-29.31-9.94-6.94-16.53-17-15.4-23.62.43-2.54 1.98-4.24 4.48-4.89 2.51-.66 13.92 2.1 26.89 7.27l-.43 1.08c-11.16-4.45-23.63-7.89-26.16-7.22-2.05.54-3.27 1.87-3.63 3.97-.92 5.38 4.2 15.23 15.49 22.87l.61.41-.54.5c-.13.12-13.02 12.22-15.31 29.12zM379.12 313.64c-.27-5.76-4.62-10.5-10.33-11.26l-10.16-1.36-.14-.24c-.06-.1-6.12-10.05-15.74-10.96-2.89-.27-5.25.33-7.01 1.8-2.8 2.35-3.15 6.17-3.15 6.21l-1.16-.09c.01-.18.38-4.33 3.55-7 2-1.68 4.65-2.38 7.87-2.08 9.47.89 15.45 9.66 16.48 11.28l9.62 1.28c6.27.84 11.04 6.03 11.34 12.35l-1.16.05z"/><rect width="1.16" height="6.86" x="332.99" y="297.06" transform="rotate(-31.61 333.525 300.463)"/><rect width="1.16" height="6.86" x="317.7" y="306.5" transform="rotate(-31.61 318.24 309.912)"/><rect width="1.16" height="6.86" x="305.11" y="317.29" transform="rotate(-31.61 305.647 320.695)"/><path fill="#ffbc97" d="m333.79,1011.81v15.29h-47.66v-16.19l-20.23,15.74h-114.21c-.51-4.58-.71-8.76-.63-12.59,1.07-49.89,49.82-38.73,69.87-45.41,21.58-7.19,29.68-47.66,29.68-47.66l83.63,12.59c-3.6,10.79-5.85,42.72-5.85,42.72,4.57,6.5,5.8,16.2,5.94,23.83.13,6.63-.55,11.69-.55,11.69Z"/><polygon points="422.53 426.43 405.32 393.82 405.42 393.58 425.17 342.4 426.26 342.81 406.6 393.75 423.56 425.89 422.53 426.43"/><rect width="78.7" height="1.16" x="248.58" y="321.94" transform="rotate(-57.12 287.895 322.504)"/><rect width="214.49" height="1.16" x="168.77" y="660.97" transform="rotate(-84.7 276.012 661.545)"/><polygon points="439.55 526.73 439.23 527.85 259.2 495.54 259.19 495.54 222.38 488.93 189.26 482.98 189.82 481.9 221 487.5 255.65 493.72 439.55 526.73"/><rect width="10.79" height="22.95" x="220.51" y="469.59" fill="#0d2549" transform="rotate(10.18 225.81 480.845)"/><rect width="10.79" height="22.95" x="319.88" y="487.58" fill="#0d2549" transform="rotate(10.18 325.18 498.813)"/><rect width="10.79" height="22.95" x="425.09" y="506.46" fill="#0d2549" transform="rotate(10.18 430.345 517.68)"/><circle cx="422.15" cy="193.25" r="24.95" fill="#7c4b33"/><path fill="#7c4b33" d="M442.93 209.83c5.42-4.54 8.91-11.3 9.48-18.35-2.45 7.03-8.85 12.54-16.17 13.9-3.88.72-14.14 1.85-9.29 8.29 3.71 4.91 12.63-1.04 15.98-3.84zM397.41 178.83c1.62-6.43 6.39-12.51 12.92-13.65 3.91-.68 7.99.48 11.3 2.67 3.31 2.18 5.9 5.31 7.98 8.69-3.44-5-9.88-7.62-15.9-6.83-6.02.8-11.42 4.82-14.29 10.17-2.81 5.25-2.26 10.06-2.13 15.72-.88-5.49-1.25-11.33.12-16.77z"/><path d="m276.6,557.2l-.2-.37c-12.99-24.19-5.98-59.52-5.91-59.87l1.14.23c-.07.35-6.92,34.92,5.6,58.72l20.27-3.53.2,1.14-21.1,3.67Z"/><circle cx="280.96" cy="488.66" r="6.52"/><polygon points="321.1 893 319.96 892.77 362.68 683.69 403.17 520.75 404.29 521.03 363.81 683.94 321.1 893"/><path d="m393.63,560.87c-7.72-2.39-14.2-9.66-16.92-18.96-2.47-8.49-1.9-17.49-.9-25.94l1.15.14c-.98,8.34-1.55,17.19.87,25.48,2.6,8.94,8.79,15.9,16.15,18.18l-.34,1.11Z"/><path d="m392.27,567.48c-8.28-2.91-19.84-13.81-22.34-23.5-2.47-9.6-1.89-19.79-.9-29.36l1.23.13c-.98,9.46-1.55,19.51.87,28.92,2.4,9.33,13.56,19.84,21.55,22.64l-.41,1.17Z"/><path fill="#ffcc83" d="M315.47 246.68c-19.5 16.84-50.01 22.25-67 23.99l-2.2-10.67c16.88-1.66 50.11-7.25 66.62-25.86l2.58 12.55zM473.34 411.87l-4.5 11.8c-10.67-14.69-24.04-25.56-39.82-32.37-8.38-3.61-15.5-5.17-19.64-5.82l3.92-10.28c4.82.9 11.66 2.64 19.51 5.98 11.34 4.82 26.73 13.91 40.53 30.69z"/><rect width="95.1" height="23.83" x="246.11" y="908.99" fill="#7c4b33" rx="6.35" ry="6.35" transform="rotate(8.07 293.7 920.993)"/><path d="M333.79 1011.81v15.29h-47.66v-16.19l-20.23 15.74h-114.21c-.51-4.58-.71-8.76-.63-12.59h91.47c5.27 0 10.44-1.5 14.89-4.32l.44-.27c9.65-6.11 20.84-9.35 32.26-9.35h44.21c.13 6.63-.55 11.69-.55 11.69zM266.07 967.1c-19.29-4.18-31.36-5.77-40.38-5.29l-.06-1.16c9.12-.48 21.3 1.11 40.69 5.31l-.25 1.13zM269.51 957.16c-10.77-2.56-21.83-3.76-32.9-3.54l-.02-1.16c11.16-.21 22.33.99 33.19 3.57l-.27 1.13zM250.44 949.22c-12.89-11.48-20.07-25.72-20.77-41.19-.11-2.33-.1-5.35.89-8.13l.03-.07c.69-1.89 2.36-3.04 4.37-3.01 2.03.03 3.76 1.29 4.4 3.21 2.09 6.27 2.81 13.06 3.5 19.64.1.97.2 1.93.31 2.89h0c.96 8.69 2.45 18.58 8.11 25.86l-.84.79zm-15.55-51.23c-1.17 0-2.61.59-3.22 2.24l-.02.05c-.93 2.6-.93 5.48-.83 7.7.62 13.67 6.43 26.38 16.86 37.01-3.68-6.85-4.86-14.99-5.67-22.3h0c-.11-.96-.21-1.93-.31-2.9-.69-6.51-1.4-13.24-3.45-19.39-.48-1.45-1.79-2.4-3.32-2.42-.02 0-.03 0-.05 0z"/><path fill="#7c4b33" d="m402.59,199.77s12.59,13.49-1.35,21.13c-13.94,7.64-31.92,0-39.12,17.99-7.19,17.99-10.79,9.89-14.84,4.5,0,0,9.44,5.4,10.79-13.49.5-6.96-2.25-12.14,6.74-17.99,8.99-5.85,9.89-14.84,22.48-15.74,12.59-.9,15.29,3.6,15.29,3.6Z"/><path fill="#7c4b33" d="m401.24,215.06s-6.74,21.13-.9,26.98c5.85,5.85,10.34,22.48.9,29.23,0,0,16.64-1.8,16.64-18.44s4.95-14.84,8.99-20.68c4.05-5.85-4.5-26.08-21.58-28.78l-4.05,11.69Z"/><path d="m428.42,220.94c-2.22-7.53-7-14.14-13.46-18.61-6.45-4.47-14.32-6.61-22.15-6.05l-.08-1.16c8.09-.59,16.22,1.63,22.9,6.25,6.67,4.62,11.61,11.45,13.91,19.23l-1.11.33Z"/><path d="m438.31,219.96c-3.28,0-6.65-.48-9.49-1.42l-1.24-.41,1.13-.65c4.57-2.62,10.78-3.39,15.17-3.57h0c2.08-.08,3.44.56,3.81,1.81.27.89-.11,1.95-.94,2.63-.69.56-1.53.8-2.33.98-1.89.42-3.98.62-6.11.62Zm-7.77-2.12c4.29,1.12,9.48,1.28,13.63.36.66-.15,1.35-.34,1.85-.75.38-.31.72-.88.56-1.4-.29-.98-1.95-1.01-2.65-.98h0c-3.87.16-9.17.78-13.39,2.77Z"/><rect width="93.77" height="1.16" x="219.69" y="596.89" transform="rotate(-65.65 266.551 597.457)"/></g><g transform="translate(40.539 293.187) scale(.76294)"><path fill="#112e5b" d="m287.01,683.15s-30.53,28.82-21.07,55.05c9.46,26.24-60.21,42.15-65.8,58.06-5.59,15.91,5.16,22.79,5.16,22.79h102.78s70.1-63.22,74.83-97.2-47.73-66.23-47.73-66.23c0,0-16.34-.86-9.89,15.05,6.45,15.91-15.91,6.02-38.27,12.47Z"/><polygon fill="#ff9996" points="391.08 738.21 391.08 775.62 287.01 775.62 287.01 709.82 391.08 738.21"/><path fill="#b8c2d8" d="m163.58,303.38c19.46-.44,54.83-8.4,92.89-17.63,0,0,33.11-89.46,0-90.75-33.11-1.29-128.15,70.11-92.89,108.38Z"/><path fill="#ffcc83" d="m200.14,285.75l-61.67,193.84c-6.62,20.82-2.61,43.57,10.75,60.86l140.8,182.28,45.15-147.95-57.2-63.22,25.37-155.69-103.21-70.11Z"/><path fill="#ffcc83" d="m200.14,285.75l64.67,133.11-4.03,116.35,21.93,209.03s111.38-.63,111.54-.43l1.13-205.15,20.64-123.87c8.87-31.17,17.52-42.34,9.17-73.66l-6.16-23.11-218.89-32.26Z"/><path fill="#b8c2d8" d="m269.61,175.97s-17.25.35-16.64-16.65c.49-13.61,2.05-51.76,7.87-62.87,9.22-17.61,30.71-23.67,48.74-21.4l-39.97,100.91Z"/><ellipse cx="163.58" cy="263.81" rx="41.71" ry="39.57"/><path fill="#b8c2d8" d="m308.08,75s113.91,14.3,143.63,35.7c29.72,21.4-36.12,132.04-36.12,132.04l-3.01,71.83s-122.13-10.75-212.44-28.82c0,0,78.02-191.61,107.94-210.75Z"/><path d="m358.82,277.58c-7.48,26.82-16.46,49.82-29.67,45.16-7.31-2.58-13.25-31.02-1.84-56.42,11.41-25.39,22.82-39.58,33.23-38.63,4.73.43,7.74,15.95-1.72,49.89Z"/><path fill="#ffbc97" d="m320.97,288.54l111.25,59.01c57.58,31.12,115.87-31.4,48.39-67.73l-120.17-49.24c-49.49-23.76-72.75,43.8-39.47,57.95Z"/><path fill="#ffbc97" d="m360.54,230.7l-44.04-37.18c-5.51-4.66-12.2-7.71-19.33-8.83l-36.4-5.71c-5.87-.92-11.49,2.73-13.04,8.47l-7.18,26.69c-.6,2.24-.29,4.62.86,6.62,3.97,6.88,15,21.2,35.26,14.22,0,0,6.88,9.89,22.79.43,0,0,4.73,8.6,26.66,1.29l34.4-6.02Z"/><path fill="#ffbc97" d="M323.13 289.62s-142.77-49.89-66.66-72.69c37.27-11.16 104.07 13.76 104.07 13.76 0 0 14.19 30.54-5.16 44.3-19.35 13.76-32.25 14.62-32.25 14.62zM265.07 182.96s-24.08-7.74-31.39-9.46c-7.31-1.72-29.67 30.97-42.14 43.44s14.62 18.49 23.65 9.89c9.03-8.6 19.35-21.5 19.35-21.5l23.22.43s12.9-3.01 15.05-10.75c2.15-7.74-7.74-12.04-7.74-12.04z"/><path d="M360.11 1.03s7.13-16.6 28.81-11.18c20.64 5.16 16.34 22.36 37.41 24.52 0 0-6.02 6.45-10.32 3.87 0 0 8.17 7.31 11.61 3.44 0 0-8.17 16.34-26.66 16.34S360.11 1.03 360.11 1.03zM273.24 234.67c-.18 0-.36-.09-.46-.26l-8.38-13.97c-1.31-2.18-1.69-4.83-1.05-7.29l4.64-17.86c.07-.29.36-.46.65-.38.29.07.46.37.38.65l-4.64 17.86c-.57 2.18-.23 4.54.93 6.47l8.38 13.97c.15.25.07.58-.18.73-.09.05-.18.08-.28.08zM295.61 235.53c-.18 0-.35-.09-.45-.25l-9.2-14.31c-1.62-2.52-2.1-5.61-1.32-8.5l3.57-13.32c.08-.29.37-.45.66-.38.29.08.46.37.38.66l-3.57 13.32c-.7 2.6-.26 5.38 1.19 7.64l9.2 14.31c.16.25.09.58-.16.74-.09.06-.19.09-.29.09z"/><path d="m307.93,240.31s-.01,0-.02,0c-6.74-.28-11.23-3.69-12.38-4.66-7.2,3.71-13.12,4.78-17.58,3.16-2.86-1.03-4.3-2.9-4.88-3.86-5.92,4.42-10.67,4.63-13.64,4-3.34-.71-5.19-2.56-5.27-2.64l-12.46-13.74c-1.99-2.2-2.1-6.88-1.42-9.41l7.07-26.04c.08-.29.37-.45.66-.38s.45.37.38.66l-7.07,26.04c-.7,2.58-.35,6.73,1.18,8.41l12.44,13.73c.26.26,6.91,6.75,17.97-1.86.13-.1.3-.14.47-.1.16.04.29.16.36.31.01.02,1.16,2.65,4.6,3.88,4.18,1.49,10.06.36,17.02-3.29.2-.11.45-.07.62.08.05.04,4.68,4.33,11.98,4.63.3.01.53.26.51.56-.01.29-.25.51-.53.51Z"/><path d="m325.28,264.35c-.09,0-.18-.02-.27-.07-13.97-8.11-17.97-22.01-18.86-32.24-.96-11.04,1.39-20.3,1.41-20.4.07-.29.37-.46.65-.38.29.07.46.37.38.65-.02.09-2.33,9.2-1.38,20.06.88,9.97,4.77,23.5,18.33,31.38.26.15.34.48.19.73-.1.17-.28.27-.46.27Z"/><path d="M303.35 223.49c-.12 0-.24-.04-.34-.13-.23-.19-.26-.53-.07-.75l3.55-4.22c.19-.23.53-.26.75-.07.23.19.26.53.07.75l-3.55 4.22c-.11.13-.26.19-.41.19zM294.61 253.8c-.12 0-.24-.04-.34-.12-9.48-7.63-20.86-12.65-32.89-14.51-.29-.05-.49-.32-.45-.61.04-.29.32-.49.61-.45 12.22 1.89 23.77 6.98 33.4 14.73.23.19.27.52.08.75-.11.13-.26.2-.42.2z"/><path fill="#f2f2f2" d="m308.51,262.4v11.85c0,2.55-2.21,4.61-4.93,4.61H66.69c-2.78,0-5.02-2.1-5.02-4.7v-16.37h241.92c2.72,0,4.93,2.06,4.93,4.61Z"/><path fill="#f2f2f2" d="m217.77,257.79H62.09l-38.56-86.3c-3.23-7.23,1.62-15.5,9.51-16.2l115.85-10.32c10.59-.94,20.61,4.94,24.95,14.64l43.92,98.19Z"/><path fill="#d3d2d1" d="m308.51,262.4v11.85c0,2.55-2.5,4.61-5.59,4.61h-85.15v-21.07h85.15c3.09,0,5.59,2.06,5.59,4.61Z"/><path fill="#ffbc97" d="m96.5,300.8l-19.97-14.38c-1.02-.73-1.89-1.64-2.59-2.68l-15.18-22.61c-2.51-3.73-.98-8.87,3.19-10.54,3.91-1.57,8.96-2.1,13.91,1.61,10.32,7.74,34.4,39.14,49.46,43.44,15.05,4.3-18.06,12.04-28.81,5.16Z"/><path fill="#ffbc97" d="m128.7,297.11l-28.33-14.81s-25.37-36.56-20.64-40.43c4.53-3.7,16.77-7.31,27.52,9.03,10.75,16.34,19.35,23.23,19.35,23.23l22.79,11.61s-1.29,6.02-9.46,11.18c-8.17,5.16-11.24.18-11.24.18Z"/><path fill="#ffbc97" d="m150.68,290.91l-28.1-20.39c-1.37-1-2.5-2.3-3.27-3.82l-11.63-22.67s-2.15-3.87,6.02-5.59c8.17-1.72,18.92,2.58,26.66,21.5l27.09,18.49s4.3,8.17-2.58,12.47-14.19,0-14.19,0Z"/><path fill="#ffbc97" d="m188.53,278.44s-21.93-14.19-24.94-18.92c-3.01-4.73-9.89-15.91-17.63-10.32-7.74,5.59,7.74,27.1,7.74,27.1l18.06,13.33s10.75.86,13.33-2.58c2.58-3.44,3.44-8.6,3.44-8.6Z"/><path fill="#ffbc97" d="m199.99,278.87c-6.59,17.8-59.34,23.68-77.69,26.24-18.49,2.58-29.7-8.69-29.7-8.69,0,0,33.81-10.73,63.56-17.54h43.83Z"/><path d="M119.72 297.47c-.11 0-.23-.04-.32-.11l-18.09-13.67c-.88-.67-1.64-1.48-2.24-2.41l-10.13-15.6c-.16-.25-.09-.58.16-.74.25-.16.58-.09.74.16l10.13 15.6c.54.83 1.21 1.55 1.99 2.14l18.09 13.67c.24.18.28.51.1.75-.1.14-.27.21-.43.21zM143.8 288c-.12 0-.23-.04-.33-.12l-19.9-15.84c-.82-.66-1.53-1.44-2.1-2.32l-6.04-9.41c-.16-.25-.09-.58.16-.74.25-.16.58-.09.74.16l6.04 9.41c.51.79 1.13 1.48 1.86 2.07l19.9 15.84c.23.18.27.52.09.75-.11.13-.26.2-.42.2zM162.72 286.28c-.14 0-.28-.06-.39-.17l-9.03-9.46s-.06-.07-.08-.12l-8.76-16.26c-.14-.26-.04-.59.22-.73.26-.14.59-.04.73.22l8.73 16.2 8.98 9.41c.2.21.2.55-.02.76-.1.1-.24.15-.37.15z"/><ellipse cx="114.22" cy="205.91" fill="#d3d2d1" rx="8.58" ry="10.72" transform="rotate(-56.07 114.23 205.924)"/><line x1="194.55" x2="445.26" y1="303.38" y2="339.51" fill="#b8c2d8"/><path d="m374.52,744.32c-.29,0-.52-.23-.53-.51l-8.82-206.01s0-.05,0-.07l17.63-202.14c.03-.29.28-.51.58-.49.29.03.51.29.49.58l-17.63,202.11,8.81,205.97c.01.3-.22.55-.51.56,0,0-.02,0-.02,0Z"/><path fill="#b8c2d8" d="m422.9,299.51l-5.61-90.93c-6.58-19.4-9.22-40.13-7.14-60.62,1.84-18.1-3.38-42.02,10.17-45,28.53-6.28,56.51,23.4,63.65,46.02,7.13,22.62,35.69,156.55,35.69,156.55,0,0-6.79,33.27-34.13,37.04-27.34,3.77-62.63-43.06-62.63-43.06Z"/><path fill="#ffbc97" d="m357.1,108.12c-26.5-4.82-17.67-28.39-13.76-28.39,2.2,0,4.18-.32,5.96-.89,1.46-.46,2.79-1.08,4-1.82h0c6.49-3.98,9.28-11.24,9.81-14.25l30.99-14.86,3.62-1.74,6.25-3c-3.8,10.24-3.44,33.12,3.01,46.45,7.23,14.94-16.77,24.52-49.89,18.49Z"/><path d="m394.1,47.91c-1.51,10.32-8.3,30.2-38.29,29.24-.87-.03-1.71-.07-2.51-.13,6.49-3.98,9.28-11.24,9.81-14.25l30.99-14.86Z"/><path fill="#ffbc97" d="m412.45,24.15c-2.65-2.81-6.47-3.92-10.29-3.39-5.34-15.78-18.18-23.31-32.19-19.99-15.17,3.59-25.96,18.53-21.57,37.08s9.82,33.13,24.99,29.54c8.49-2.01,18.24-9.3,24.4-18.58,4.9-1.05,10.14-3.69,13.11-6.48,5.46-5.15,6.15-13.29,1.55-18.17Z"/><path d="m411.16,34.86c-2.31-2.9-5.51-5.14-9.03-6.3l.35-1.05c3.72,1.24,7.11,3.6,9.55,6.67l-.87.69Z"/><path fill="#fff" d="m408.24,31.2c-.31,1.73-.62,3.46-.93,5.19"/><rect width="5.27" height="1.11" x="405.14" y="33.24" transform="rotate(-79.84 407.768 33.798)"/><ellipse cx="374.97" cy="30.05" rx="1.76" ry="2.46" transform="rotate(-13.32 375.026 30.03)"/><ellipse cx="357" cy="33.7" rx="1.76" ry="2.46" transform="rotate(-13.32 357.062 33.706)"/><path d="M360.37 45.91l-.62-.92c2.62-1.78 4.47-4.6 5.06-7.72.59-3.12-.1-6.41-1.89-9.03l.92-.63c1.95 2.86 2.71 6.46 2.06 9.86-.65 3.41-2.66 6.48-5.52 8.43zM369.4 52.38l-.29-1.07c4.35-1.19 7.91-5.13 8.67-9.58l1.09.19c-.83 4.94-4.64 9.14-9.46 10.47z"/><path d="m369.01,68.48c-1.35,0-2.63-.17-3.84-.5-.3-.08-.47-.39-.39-.68.08-.3.39-.47.68-.39,2.31.63,4.93.61,7.8-.07,8.43-2,18.11-9.37,24.07-18.35l.13-.19.22-.05c4.73-1.01,9.89-3.56,12.84-6.35,2.54-2.4,4.1-5.53,4.38-8.83.28-3.27-.73-6.31-2.85-8.56-2.43-2.58-6-3.75-9.8-3.22l-.45.06-.15-.44c-5.16-15.24-17.54-22.95-31.54-19.63-.3.07-.6-.11-.67-.41-.07-.3.11-.6.41-.67,14.47-3.43,27.26,4.39,32.7,19.93,3.99-.43,7.73.87,10.31,3.61,2.34,2.48,3.46,5.82,3.15,9.41-.3,3.57-1.98,6.96-4.72,9.54-3.04,2.87-8.3,5.5-13.15,6.58-6.21,9.25-15.84,16.55-24.61,18.63-1.57.37-3.08.56-4.51.56Z"/><path fill="#b8c2d8" d="m519.82,310.22c1.99,91.23-129.57,41.03-189.72,12.77,19.49,6.29,44.5-91.61,31.41-94.98l130.1,42.91c17.13,5.8,27.83,21.84,28.21,39.31Z"/><path fill="#112e5b" d="m405.68,86.58s6.04,15.52-18.91,18.96-37.84-.86-43.43-11.18c-5.59-10.32,6.02-15.48,6.02-15.48,0,0-.86.51-6.88.43-11.97-.15-20.89,21.99-20.78,31.49.03,2.2,2.71,3.25,4.21,1.63,3.88-4.18,11.48-11.7,15.28-9.47,5.18,3.05,8.17,19.78,12.04,20.64s15.39-13.26,23.65-13.33c6.77-.06,11.11,11.55,13.4,18.81.61,1.92,2.98,2.58,4.5,1.26,7.26-6.32,23.84-22.48,20.8-35.99l-9.91-7.77Z"/><circle cx="349.15" cy="135" r="4.09" fill="#112e5b"/><circle cx="338.83" cy="156.07" r="4.09" fill="#112e5b"/><path d="M247.44 177.9c-.08 0-.15-.02-.23-.05-.27-.13-.38-.45-.26-.71l33.97-72.26c.13-.27.44-.38.71-.26.27.13.38.45.26.71l-33.97 72.26c-.09.19-.28.31-.49.31zM419.46 246.28c-.28 0-.52-.22-.53-.5l-3.44-58.49c-.02-.3.21-.55.5-.57.3-.01.55.21.57.5l3.44 58.49c.02.3-.21.55-.5.57-.01 0-.02 0-.03 0z"/><path d="M416.74 210.62c-.17 0-.34-.08-.45-.24-4.71-7.08-7.39-15.66-7.55-24.15 0-.3.23-.54.53-.55.3-.02.54.23.55.53.16 8.3 2.78 16.67 7.37 23.58.16.25.1.58-.15.74-.09.06-.19.09-.3.09zM459.45 260.91c-.06 0-.11 0-.17-.03l-98.05-32.26c-.28-.09-.43-.4-.34-.68.09-.28.4-.43.68-.34l98.05 32.26c.28.09.43.4.34.68-.07.23-.28.37-.51.37z"/><path d="M419.2 247.35c-.21 0-.41-.12-.49-.33-.11-.27.02-.59.29-.7 5.99-2.49 12.54-3.3 18.96-2.35.29.04.49.32.45.61-.04.29-.32.5-.61.45-6.22-.92-12.58-.13-18.39 2.28-.07.03-.14.04-.2.04zM280.45 723.26c-.27 0-.5-.21-.53-.48l-18.82-187.52s0-.05 0-.07l6.87-172.55-12.59-6.3c-.17-.08-.28-.25-.29-.44l-4.3-60.64c-.02-.29.2-.55.5-.57.3-.02.55.2.57.5l4.28 60.34 12.63 6.31c.19.09.3.29.3.5l-6.88 172.86 18.81 187.48c.03.29-.19.56-.48.59-.02 0-.04 0-.05 0z"/><path d="m268.51,362.84s-.02,0-.03,0c-.3-.02-.52-.27-.51-.56l3.44-64.51c.02-.3.28-.52.56-.51.3.02.52.27.51.56l-3.44,64.51c-.02.29-.25.51-.53.51Z"/><circle cx="261.63" cy="304.24" r="5.16"/><rect width="9.36" height="19.97" x="215.22" y="289.63" fill="#b8c2d8" transform="rotate(8.2 219.893 299.602)"/><rect width="9.36" height="19.97" x="304.67" y="304.69" fill="#b8c2d8" transform="rotate(8.2 309.312 314.646)"/><path d="M213.9 309.51s-.05 0-.08 0c-.29-.04-.5-.31-.45-.61l2.58-18.06c.04-.29.31-.5.61-.45.29.04.5.31.45.61l-2.58 18.06c-.04.27-.27.46-.53.46zM303.35 324.56s-.05 0-.08 0c-.29-.04-.49-.32-.45-.61l3.01-19.78c.04-.29.32-.49.61-.45.29.04.49.32.45.61l-3.01 19.78c-.04.27-.27.45-.53.45z"/><path fill="#112e5b" d="m392.8,828.1h-206.13c-8.27,0-14.82-7.11-13.99-15.34.05-.48.1-.96.17-1.43,5.53-43.42,59.92-40.82,72.43-45.37,5.37-1.95,13.94-9.55,22.44-18.15,16.94-17.13,43.98-18.94,63.05-4.22,26,20.07,43.36,32.71,57.99,6.61,1.89-3.37,7.01-2.22,7.27,1.63l4.08,59.5.57,8.34c.31,4.56-3.3,8.43-7.88,8.43Z"/><path d="M236.93 768.26c-.26 0-.49-.19-.53-.46-.04-.29.16-.56.45-.61l1.19-.18c8.73-1.28 13.55-1.99 25.93-16.24 13.05-15.02 26.29-16.38 26.85-16.44.3-.02.55.19.58.48s-.19.55-.48.58c-.13.01-13.39 1.4-26.14 16.07-12.64 14.56-17.6 15.28-26.58 16.6l-1.18.17s-.05 0-.08 0zM392.8 828.1h-206.13c-8.27 0-14.82-7.11-13.99-15.34.05-.48.1-.96.17-1.43h227.26l.57 8.34c.31 4.56-3.3 8.43-7.88 8.43zM260.82 788.09c-.1 0-.2-.03-.29-.08-13.63-8.69-30-12.63-46.1-11.1-.29.03-.56-.19-.58-.48-.03-.29.19-.56.48-.58 16.33-1.56 32.94 2.44 46.77 11.26.25.16.32.49.16.74-.1.16-.28.25-.45.25zM398.82 8.77c-5.16-11.61-23.22-18.06-31.82-10.32-.54.49-1.05.96-1.53 1.42-15.74-1.74-21.71 15.31-22.13 24.82-.43 9.89-6.02 10.32-6.02 10.32 0 2.15 4.3 3.01 4.3 3.01 12.47 1.29 6.88-19.35 12.47-24.09 3.38-2.86 6.02 0 6.02 0h0s3.87-6.02 8.6-1.72 27.52 26.24 39.13 6.02c0 0-3.87 2.15-9.03-9.46z"/><path d="M369.14-3.28s-8.6-5.16-17.63-.86-12.9 21.07-19.35 23.66c0 0 2.58 2.58 6.45.43 0 0-3.01 4.3-5.16 6.45 0 0 10.52 13.33 14.62 2.15s21.07-31.83 21.07-31.83zM302.92 258.33h-139.33c-.3 0-.54-.24-.54-.54s.24-.54.54-.54h139.33c.3 0 .54.24.54.54s-.24.54-.54.54z"/></g><g transform="translate(358.296 691.038) scale(.51895)"><rect width="239.6" height="5.6" x="-86.55" y="327.25" transform="rotate(-78.95 33.238 330.047)"/><rect width="5.6" height="239.6" x="288.14" y="210.25" transform="rotate(-11.05 291.025 330.135)"/><rect width="5.6" height="243.38" x="465.72" y="208.36" transform="rotate(-14.94 468.502 330.041)"/><path fill="#7c4b33" d="m17.13-.84h273.81v207.16H-.37V16.65C-.37,7,7.47-.84,17.13-.84Z"/><path fill="#562f20" d="m290.94-.84h186.42c9.65,0,17.49,7.84,17.49,17.49v189.67h-203.91V-.84h0Z"/><rect width="110.92" height="20.16" x="78.06" y="23.79" fill="#562f20"/><rect width="291.3" height="12.32" x="-.37" y="206.32" fill="#ffbc97"/><rect width="203.91" height="12.32" x="290.94" y="206.32" fill="#422117"/><rect width="412.3" height="5.6" x="42.77" y="280.22"/></g><g transform="translate(420.172 524.319) scale(.37172)"><polygon fill="#90d8e0" points="41.03 446.5 234.4 446.5 298.4 260.47 105.02 260.47 41.03 446.5"/><path d="m234.98,447.31H39.89l64.56-187.66h195.09l-64.56,187.66Zm-192.81-1.63h191.65l63.44-184.41H105.6l-63.44,184.41Z"/><polygon points="376.63 447.07 234.4 447.07 299.6 259.9 376.63 447.07"/><path d="m281.89,259.9h-1.97c0-7.71-4.58-13.98-10.2-13.98s-10.2,6.27-10.2,13.98h-1.97c0-8.79,5.46-15.95,12.18-15.95s12.18,7.15,12.18,15.95Z"/><path d="m265.93,259.9h-1.97c0-7.71-4.58-13.98-10.2-13.98s-10.2,6.27-10.2,13.98h-1.97c0-8.79,5.46-15.95,12.18-15.95s12.17,7.15,12.17,15.95Z"/><path d="m248.39,259.9h-1.97c0-7.71-4.58-13.98-10.2-13.98s-10.2,6.27-10.2,13.98h-1.97c0-8.79,5.46-15.95,12.17-15.95s12.18,7.15,12.18,15.95Z"/><path d="m229.22,259.9h-1.97c0-7.71-4.58-13.98-10.2-13.98s-10.2,6.27-10.2,13.98h-1.97c0-8.79,5.46-15.95,12.17-15.95s12.18,7.15,12.18,15.95Z"/><path d="m213.26,259.9h-1.97c0-7.71-4.58-13.98-10.2-13.98s-10.2,6.27-10.2,13.98h-1.97c0-8.79,5.46-15.95,12.18-15.95s12.18,7.15,12.18,15.95Z"/><path d="m197.3,259.9h-1.97c0-7.71-4.58-13.98-10.2-13.98s-10.2,6.27-10.2,13.98h-1.97c0-8.79,5.46-15.95,12.18-15.95s12.17,7.15,12.17,15.95Z"/><path d="m181.33,259.9h-1.97c0-7.71-4.58-13.98-10.2-13.98s-10.2,6.27-10.2,13.98h-1.97c0-8.79,5.46-15.95,12.17-15.95s12.18,7.15,12.18,15.95Z"/><path d="m165.37,259.9h-1.97c0-7.71-4.58-13.98-10.2-13.98s-10.2,6.27-10.2,13.98h-1.97c0-8.79,5.46-15.95,12.18-15.95s12.18,7.15,12.18,15.95Z"/><path d="m149.41,259.9h-1.97c0-7.71-4.58-13.98-10.2-13.98s-10.2,6.27-10.2,13.98h-1.97c0-8.79,5.46-15.95,12.18-15.95s12.17,7.15,12.17,15.95Z"/><polygon fill="#fff" points="228.54 320.35 262.79 320.35 273.84 286.29 239.59 286.29 228.54 320.35"/><path d="m263.51,321.33h-36.33l11.69-36.03h36.33l-11.69,36.03Zm-33.61-1.97h32.18l10.41-32.08h-32.18l-10.41,32.08Z"/><polygon fill="#fff" points="185.47 320.35 219.72 320.35 230.77 286.29 196.52 286.29 185.47 320.35"/><path d="m220.44,321.33h-36.33l11.69-36.03h36.33l-11.69,36.03Zm-33.61-1.97h32.18l10.41-32.08h-32.18l-10.41,32.08Z"/><polygon fill="#fff" points="142.4 320.35 176.66 320.35 187.7 286.29 153.45 286.29 142.4 320.35"/><path d="m177.37,321.33h-36.33l11.69-36.03h36.33l-11.69,36.03Zm-33.61-1.97h32.18l10.41-32.08h-32.18l-10.41,32.08Z"/><polygon fill="#fff" points="99.34 320.35 133.59 320.35 144.64 286.29 110.38 286.29 99.34 320.35"/><path d="m134.31,321.33h-36.33l11.69-36.03h36.33l-11.69,36.03Zm-33.61-1.97h32.18l10.41-32.08h-32.18l-10.41,32.08Z"/><polygon fill="#fff" points="211.55 370.51 245.8 370.51 256.84 336.45 222.59 336.45 211.55 370.51"/><path d="m246.51,371.5h-36.33l11.69-36.03h36.33l-11.69,36.03Zm-33.61-1.97h32.18l10.41-32.08h-32.18l-10.41,32.08Z"/><polygon fill="#3B82F6" points="168.48 370.51 202.73 370.51 213.78 336.45 179.53 336.45 168.48 370.51"/><path d="m203.45,371.5h-36.33l11.69-36.03h36.33l-11.69,36.03Zm-33.61-1.97h32.18l10.41-32.08h-32.18l-10.41,32.08Z"/><polygon fill="#fff" points="125.41 370.51 159.66 370.51 170.71 336.45 136.46 336.45 125.41 370.51"/><path d="m160.38,371.5h-36.33l11.69-36.03h36.33l-11.69,36.03Zm-33.61-1.97h32.18l10.41-32.08h-32.18l-10.41,32.08Z"/><polygon fill="#fff" points="82.34 370.51 116.6 370.51 127.64 336.45 93.39 336.45 82.34 370.51"/><path d="m117.31,371.5h-36.33l11.69-36.03h36.33l-11.69,36.03Zm-33.61-1.97h32.18l10.41-32.08h-32.18l-10.41,32.08Z"/><polygon fill="#fff" points="194.55 420.68 228.8 420.68 239.85 386.62 205.6 386.62 194.55 420.68"/><path d="m229.52,421.66h-36.33l11.69-36.03h36.33l-11.69,36.03Zm-33.61-1.97h32.18l10.41-32.08h-32.18l-10.41,32.08Z"/><polygon fill="#fff" points="151.49 420.68 185.74 420.68 196.78 386.62 162.53 386.62 151.49 420.68"/><path d="m186.45,421.66h-36.33l11.69-36.03h36.33l-11.69,36.03Zm-33.61-1.97h32.18l10.41-32.08h-32.18l-10.41,32.08Z"/><polygon fill="#fff" points="108.42 420.68 142.67 420.68 153.72 386.62 119.47 386.62 108.42 420.68"/><path d="m143.39,421.66h-36.33l11.69-36.03h36.33l-11.69,36.03Zm-33.61-1.97h32.18l10.41-32.08h-32.18l-10.41,32.08Z"/><polygon fill="#fff" points="65.35 420.68 99.6 420.68 110.65 386.62 76.4 386.62 65.35 420.68"/><path d="m100.32,421.66h-36.33l11.69-36.03h36.33l-11.69,36.03Zm-33.61-1.97h32.18l10.41-32.08h-32.18l-10.41,32.08Z"/></g></svg>